<svg width="128" height="51" viewBox="0 0 128 51" fill="none" xmlns="http://www.w3.org/2000/svg">
<g filter="url(#filter0_d_1088_30180)">
<g clip-path="url(#clip0_1088_30180)">
<g filter="url(#filter1_d_1088_30180)">
<rect y="0.5" width="128" height="48" rx="16" fill="#F5B64A"/>
<rect x="0.5" y="1" width="127" height="47" rx="15.5" stroke="#F5B64A"/>
<path d="M41.916 31.164C41.916 31.3027 41.8893 31.3933 41.836 31.436C41.7933 31.4787 41.692 31.5 41.532 31.5H39.852C39.7133 31.5 39.6173 31.4787 39.564 31.436C39.5107 31.3827 39.484 31.292 39.484 31.164V26.684H35.148V31.164C35.148 31.3027 35.1213 31.3933 35.068 31.436C35.0253 31.4787 34.924 31.5 34.764 31.5H33.068C32.94 31.5 32.844 31.4787 32.78 31.436C32.7267 31.3827 32.7 31.292 32.7 31.164V20.636C32.7 20.508 32.7267 20.4227 32.78 20.38C32.844 20.3267 32.94 20.3 33.068 20.3H34.764C34.924 20.3 35.0253 20.3213 35.068 20.364C35.1213 20.4067 35.148 20.4973 35.148 20.636V24.62H39.484V20.636C39.484 20.508 39.5107 20.4227 39.564 20.38C39.6173 20.3267 39.7133 20.3 39.852 20.3H41.532C41.692 20.3 41.7933 20.3213 41.836 20.364C41.8893 20.4067 41.916 20.4973 41.916 20.636V31.164ZM51.9094 27.26C51.9094 28.668 51.5734 29.756 50.9014 30.524C50.2294 31.292 49.2054 31.676 47.8294 31.676C46.4427 31.676 45.4294 31.292 44.7894 30.524C44.1494 29.756 43.8294 28.6787 43.8294 27.292C43.8294 26.6093 43.92 25.996 44.1014 25.452C44.2934 24.8973 44.56 24.4333 44.9014 24.06C45.2534 23.6867 45.6747 23.3987 46.1654 23.196C46.6667 22.9933 47.232 22.892 47.8614 22.892C49.2054 22.892 50.2134 23.2813 50.8854 24.06C51.568 24.828 51.9094 25.8947 51.9094 27.26ZM49.4934 27.308C49.4934 26.9453 49.4667 26.6147 49.4134 26.316C49.36 26.0173 49.2694 25.7613 49.1414 25.548C49.0134 25.3347 48.848 25.1693 48.6454 25.052C48.4427 24.924 48.192 24.86 47.8934 24.86C47.328 24.86 46.9067 25.0787 46.6294 25.516C46.3627 25.9427 46.2294 26.524 46.2294 27.26C46.2294 28.06 46.352 28.668 46.5974 29.084C46.8534 29.5 47.2694 29.708 47.8454 29.708C48.144 29.708 48.3947 29.6493 48.5974 29.532C48.8107 29.404 48.9814 29.2333 49.1094 29.02C49.248 28.796 49.344 28.54 49.3974 28.252C49.4614 27.964 49.4934 27.6493 49.4934 27.308ZM48.9334 33.228C48.9334 33.5267 48.8267 33.772 48.6134 33.964C48.4107 34.1667 48.1654 34.268 47.8774 34.268C47.5787 34.268 47.3227 34.1667 47.1094 33.964C46.9067 33.772 46.8054 33.5267 46.8054 33.228C46.8054 32.94 46.9067 32.6893 47.1094 32.476C47.3227 32.2733 47.5787 32.172 47.8774 32.172C48.1654 32.172 48.4107 32.2733 48.6134 32.476C48.8267 32.6893 48.9334 32.94 48.9334 33.228ZM57.553 29.596C57.8943 29.596 58.225 29.5587 58.545 29.484C58.8757 29.3987 59.1583 29.3133 59.393 29.228C59.5317 29.1747 59.6223 29.1587 59.665 29.18C59.7183 29.1907 59.7663 29.2547 59.809 29.372L60.257 30.572C60.3103 30.6787 60.3317 30.764 60.321 30.828C60.321 30.892 60.2623 30.956 60.145 31.02C59.6757 31.276 59.1743 31.4467 58.641 31.532C58.1077 31.628 57.6223 31.676 57.185 31.676C55.9263 31.676 54.9717 31.3133 54.321 30.588C53.6703 29.8627 53.345 28.7747 53.345 27.324C53.345 26.6413 53.4357 26.028 53.617 25.484C53.809 24.9293 54.0757 24.46 54.417 24.076C54.7583 23.692 55.1743 23.3987 55.665 23.196C56.1663 22.9933 56.721 22.892 57.329 22.892C57.777 22.892 58.2197 22.94 58.657 23.036C59.0943 23.1213 59.4943 23.2547 59.857 23.436C59.9957 23.5 60.0703 23.5587 60.081 23.612C60.1023 23.6653 60.0863 23.756 60.033 23.884L59.585 25.116C59.5317 25.2333 59.473 25.2973 59.409 25.308C59.345 25.3187 59.2383 25.3027 59.089 25.26C58.8117 25.1747 58.5397 25.1053 58.273 25.052C58.0063 24.9987 57.7503 24.972 57.505 24.972C57.185 24.972 56.913 25.036 56.689 25.164C56.4757 25.292 56.2997 25.4627 56.161 25.676C56.0223 25.8893 55.921 26.14 55.857 26.428C55.793 26.7053 55.761 27.004 55.761 27.324C55.761 27.6547 55.7877 27.9587 55.841 28.236C55.8943 28.5133 55.9903 28.7533 56.129 28.956C56.2677 29.1587 56.449 29.3187 56.673 29.436C56.9077 29.5427 57.201 29.596 57.553 29.596ZM71.9346 31.084C71.9453 31.1587 71.9506 31.2227 71.9506 31.276C71.9506 31.3187 71.892 31.3613 71.7746 31.404C71.38 31.5213 70.9853 31.596 70.5906 31.628C70.196 31.66 69.86 31.676 69.5826 31.676C68.6653 31.676 68.0093 31.484 67.6146 31.1C67.22 30.7053 67.0226 30.1293 67.0226 29.372V24.812H65.9026C65.7853 24.812 65.7106 24.7853 65.6786 24.732C65.6466 24.668 65.6306 24.5933 65.6306 24.508V23.644C65.6306 23.5373 65.6413 23.468 65.6626 23.436C65.6946 23.3933 65.7693 23.356 65.8866 23.324L67.0706 23.052L67.1826 21.548C67.1933 21.42 67.2253 21.3293 67.2786 21.276C67.3426 21.2227 67.4333 21.18 67.5506 21.148L69.0226 20.668C69.1186 20.6467 69.1933 20.6573 69.2466 20.7C69.3106 20.7427 69.3426 20.828 69.3426 20.956V23.1H71.1026C71.22 23.1 71.2893 23.1267 71.3106 23.18C71.3426 23.2227 71.3586 23.2867 71.3586 23.372V24.508C71.3586 24.6147 71.348 24.6947 71.3266 24.748C71.3053 24.7907 71.2306 24.812 71.1026 24.812H69.3426V28.876C69.3426 29.1853 69.4173 29.3987 69.5666 29.516C69.7266 29.6333 69.9613 29.692 70.2706 29.692C70.3453 29.692 70.436 29.6867 70.5426 29.676C70.6493 29.6653 70.756 29.6547 70.8626 29.644C70.98 29.6333 71.092 29.6227 71.1986 29.612C71.3053 29.6013 71.396 29.5907 71.4706 29.58C71.6413 29.548 71.732 29.6013 71.7426 29.74L71.9346 31.084ZM75.997 20.908C75.997 21.2813 75.8637 21.596 75.597 21.852C75.341 22.0973 75.0263 22.22 74.653 22.22C74.2903 22.22 73.9757 22.0973 73.709 21.852C73.453 21.596 73.325 21.2813 73.325 20.908C73.325 20.716 73.357 20.54 73.421 20.38C73.4957 20.22 73.5917 20.0813 73.709 19.964C73.837 19.8467 73.981 19.756 74.141 19.692C74.301 19.6173 74.4717 19.58 74.653 19.58C74.8343 19.58 75.005 19.6173 75.165 19.692C75.3357 19.756 75.4797 19.8467 75.597 19.964C75.725 20.0813 75.821 20.22 75.885 20.38C75.9597 20.54 75.997 20.716 75.997 20.908ZM75.789 31.212C75.789 31.3293 75.7677 31.4093 75.725 31.452C75.6823 31.484 75.5863 31.5 75.437 31.5H73.805C73.6877 31.5 73.6023 31.484 73.549 31.452C73.4957 31.4093 73.469 31.3293 73.469 31.212V23.388C73.469 23.2707 73.4957 23.196 73.549 23.164C73.6023 23.1213 73.6877 23.1 73.805 23.1H75.437C75.5863 23.1 75.6823 23.1213 75.725 23.164C75.7677 23.196 75.789 23.2707 75.789 23.388V31.212ZM81.7974 22.892C83.0454 22.892 83.9787 23.2067 84.5974 23.836C85.2267 24.4547 85.5414 25.3453 85.5414 26.508C85.5414 27.0627 85.4347 27.4413 85.2214 27.644C85.008 27.8467 84.7147 27.948 84.3414 27.948H80.2454C80.256 28.2893 80.3094 28.572 80.4054 28.796C80.512 29.02 80.6507 29.2013 80.8214 29.34C80.992 29.4787 81.1894 29.5747 81.4134 29.628C81.648 29.6813 81.8987 29.708 82.1654 29.708C82.4747 29.708 82.7894 29.6707 83.1094 29.596C83.4294 29.5213 83.728 29.4253 84.0054 29.308C84.1334 29.2653 84.2187 29.2547 84.2614 29.276C84.3147 29.2867 84.3627 29.3347 84.4054 29.42L84.9174 30.572C84.96 30.668 84.9654 30.7427 84.9334 30.796C84.912 30.8493 84.8587 30.9027 84.7734 30.956C84.3787 31.212 83.92 31.3933 83.3974 31.5C82.8747 31.6173 82.3894 31.676 81.9414 31.676C80.544 31.676 79.5094 31.3293 78.8374 30.636C78.1654 29.9427 77.8294 28.844 77.8294 27.34C77.8294 26.636 77.92 26.012 78.1014 25.468C78.2934 24.9133 78.56 24.444 78.9014 24.06C79.2534 23.676 79.6694 23.388 80.1494 23.196C80.64 22.9933 81.1894 22.892 81.7974 22.892ZM81.8454 24.812C81.408 24.812 81.0507 24.9667 80.7734 25.276C80.496 25.5853 80.336 25.98 80.2934 26.46H83.2854C83.2854 26.2253 83.2587 26.0067 83.2054 25.804C83.1627 25.6013 83.088 25.4307 82.9814 25.292C82.8747 25.1427 82.7307 25.0253 82.5494 24.94C82.368 24.8547 82.1334 24.812 81.8454 24.812ZM84.9494 21.532C85.0454 21.6173 85.0934 21.692 85.0934 21.756C85.0934 21.8093 85.056 21.8733 84.9814 21.948L84.5334 22.444C84.4694 22.5187 84.4 22.5507 84.3254 22.54C84.2507 22.5187 84.1707 22.4813 84.0854 22.428L81.8134 21.196L79.6054 22.396C79.52 22.4493 79.4454 22.4813 79.3814 22.492C79.3174 22.492 79.248 22.4493 79.1734 22.364L78.7574 21.932C78.6934 21.8467 78.656 21.7827 78.6454 21.74C78.6454 21.6867 78.6827 21.6227 78.7574 21.548L80.8854 19.708C81.0347 19.58 81.1894 19.4787 81.3494 19.404C81.52 19.3293 81.6747 19.292 81.8134 19.292C82.1227 19.292 82.448 19.4307 82.7894 19.708L84.9494 21.532ZM86.5014 17.148C86.5654 17.0947 86.624 17.0573 86.6774 17.036C86.7307 17.0147 86.8 17.0467 86.8854 17.132L87.9894 18.396C88.0534 18.46 88.08 18.524 88.0694 18.588C88.0587 18.6413 88.0214 18.6787 87.9574 18.7L84.8694 20.284C84.7627 20.3373 84.6827 20.3587 84.6294 20.348C84.5867 20.3267 84.5387 20.2893 84.4854 20.236L83.8774 19.5C83.824 19.436 83.792 19.3827 83.7814 19.34C83.7814 19.2973 83.824 19.2387 83.9094 19.164L86.5014 17.148ZM89.5791 34.492C89.5791 34.6093 89.5578 34.684 89.5151 34.716C89.4831 34.748 89.3925 34.764 89.2431 34.764H87.5791C87.4618 34.764 87.3765 34.748 87.3231 34.716C87.2698 34.684 87.2431 34.6093 87.2431 34.492V24.06C87.2431 23.9427 87.2591 23.852 87.2911 23.788C87.3338 23.7133 87.4245 23.6387 87.5631 23.564C88.0751 23.3293 88.6458 23.164 89.2751 23.068C89.9151 22.972 90.5231 22.924 91.0991 22.924C91.8565 22.924 92.4911 23.0413 93.0031 23.276C93.5258 23.5 93.9418 23.8093 94.2511 24.204C94.5711 24.588 94.8005 25.0467 94.9391 25.58C95.0778 26.1133 95.1471 26.684 95.1471 27.292C95.1471 27.8893 95.0725 28.4547 94.9231 28.988C94.7738 29.5107 94.5445 29.9693 94.2351 30.364C93.9258 30.7587 93.5311 31.0733 93.0511 31.308C92.5818 31.532 92.0271 31.644 91.3871 31.644C91.0671 31.644 90.7685 31.628 90.4911 31.596C90.2245 31.5747 89.9205 31.5267 89.5791 31.452V34.492ZM92.7151 27.244C92.7151 26.8067 92.6725 26.4387 92.5871 26.14C92.5018 25.8413 92.3738 25.6013 92.2031 25.42C92.0431 25.2387 91.8405 25.1107 91.5951 25.036C91.3605 24.9613 91.0938 24.924 90.7951 24.924C90.6458 24.924 90.4485 24.94 90.2031 24.972C89.9685 25.004 89.7605 25.0467 89.5791 25.1V29.468C89.8565 29.5427 90.1018 29.5907 90.3151 29.612C90.5391 29.6333 90.7365 29.644 90.9071 29.644C91.4405 29.644 91.8725 29.4627 92.2031 29.1C92.5445 28.7373 92.7151 28.1187 92.7151 27.244Z" fill="white"/>
</g>
<g opacity="0.5">
<g style="mix-blend-mode:soft-light">
<rect x="25.6289" y="-21.8418" width="10.8577" height="109.684" transform="rotate(-27.1119 25.6289 -21.8418)" fill="#FBD3C4"/>
</g>
<g style="mix-blend-mode:soft-light">
<rect x="40.3848" y="-21.8418" width="1.9657" height="109.684" transform="rotate(-27.1119 40.3848 -21.8418)" fill="#FBD3C4"/>
</g>
<g style="mix-blend-mode:soft-light">
<rect x="16.2656" y="-21.8418" width="5.16073" height="109.684" transform="rotate(-27.1119 16.2656 -21.8418)" fill="#FBD3C4"/>
</g>
</g>
</g>
<rect x="0.5" y="1" width="127" height="47" rx="15.5" stroke="#AD7415" shape-rendering="crispEdges"/>
</g>
<defs>
<filter id="filter0_d_1088_30180" x="0" y="0.5" width="128" height="50" filterUnits="userSpaceOnUse" color-interpolation-filters="sRGB">
<feFlood flood-opacity="0" result="BackgroundImageFix"/>
<feColorMatrix in="SourceAlpha" type="matrix" values="0 0 0 0 0 0 0 0 0 0 0 0 0 0 0 0 0 0 127 0" result="hardAlpha"/>
<feOffset dy="2"/>
<feComposite in2="hardAlpha" operator="out"/>
<feColorMatrix type="matrix" values="0 0 0 0 0.678431 0 0 0 0 0.454902 0 0 0 0 0.0823529 0 0 0 1 0"/>
<feBlend mode="normal" in2="BackgroundImageFix" result="effect1_dropShadow_1088_30180"/>
<feBlend mode="normal" in="SourceGraphic" in2="effect1_dropShadow_1088_30180" result="shape"/>
</filter>
<filter id="filter1_d_1088_30180" x="-2" y="-0.5" width="132" height="52" filterUnits="userSpaceOnUse" color-interpolation-filters="sRGB">
<feFlood flood-opacity="0" result="BackgroundImageFix"/>
<feColorMatrix in="SourceAlpha" type="matrix" values="0 0 0 0 0 0 0 0 0 0 0 0 0 0 0 0 0 0 127 0" result="hardAlpha"/>
<feOffset dy="1"/>
<feGaussianBlur stdDeviation="1"/>
<feColorMatrix type="matrix" values="0 0 0 0 0.0627451 0 0 0 0 0.0941176 0 0 0 0 0.156863 0 0 0 0.05 0"/>
<feBlend mode="normal" in2="BackgroundImageFix" result="effect1_dropShadow_1088_30180"/>
<feBlend mode="normal" in="SourceGraphic" in2="effect1_dropShadow_1088_30180" result="shape"/>
</filter>
<clipPath id="clip0_1088_30180">
<rect y="0.5" width="128" height="48" rx="16" fill="white"/>
</clipPath>
</defs>
</svg>
