<svg width="141" height="50" viewBox="0 0 141 50" fill="none" xmlns="http://www.w3.org/2000/svg">
<g filter="url(#filter0_d_614_25809)">
<g clip-path="url(#clip0_614_25809)">
<g filter="url(#filter1_d_614_25809)">
<rect width="141" height="48" rx="16" fill="white"/>
<rect x="0.5" y="0.5" width="140" height="47" rx="15.5" stroke="#F58D68"/>
<path d="M26.208 28.968C26.72 28.968 27.1733 28.9093 27.568 28.792C27.9627 28.664 28.3307 28.536 28.672 28.408C28.8213 28.344 28.928 28.3333 28.992 28.376C29.056 28.408 29.1147 28.4827 29.168 28.6L29.712 29.752C29.7867 29.9013 29.8133 30.0133 29.792 30.088C29.7707 30.1627 29.712 30.2267 29.616 30.28C29.04 30.632 28.432 30.872 27.792 31C27.1627 31.1173 26.5387 31.176 25.92 31.176C25.0453 31.176 24.288 31.048 23.648 30.792C23.0187 30.5253 22.496 30.1467 22.08 29.656C21.6747 29.1653 21.3707 28.568 21.168 27.864C20.976 27.1493 20.88 26.3493 20.88 25.464C20.88 24.5893 21.0027 23.7947 21.248 23.08C21.504 22.3653 21.856 21.752 22.304 21.24C22.752 20.728 23.2907 20.3333 23.92 20.056C24.56 19.7787 25.264 19.64 26.032 19.64C26.576 19.64 27.1093 19.688 27.632 19.784C28.1547 19.8693 28.6667 20.0507 29.168 20.328C29.2853 20.392 29.3547 20.456 29.376 20.52C29.3973 20.584 29.3707 20.7067 29.296 20.888L28.8 21.992C28.7467 22.1413 28.688 22.232 28.624 22.264C28.5707 22.296 28.4693 22.2853 28.32 22.232C27.936 22.0933 27.5787 21.992 27.248 21.928C26.9173 21.8533 26.5493 21.816 26.144 21.816C25.7067 21.816 25.3173 21.912 24.976 22.104C24.6453 22.2853 24.3627 22.5413 24.128 22.872C23.904 23.192 23.7333 23.576 23.616 24.024C23.4987 24.4613 23.44 24.9413 23.44 25.464C23.44 25.9867 23.4827 26.4613 23.568 26.888C23.664 27.3147 23.8187 27.6827 24.032 27.992C24.256 28.3013 24.544 28.5413 24.896 28.712C25.248 28.8827 25.6853 28.968 26.208 28.968ZM39.0013 30.712C39.0013 30.84 38.9799 30.92 38.9373 30.952C38.8946 30.984 38.7986 31 38.6493 31H36.9853C36.8679 31 36.7826 30.984 36.7293 30.952C36.6759 30.9093 36.6493 30.8293 36.6493 30.712V26.232C36.6493 25.9547 36.6226 25.704 36.5693 25.48C36.5266 25.2453 36.4413 25.048 36.3133 24.888C36.1959 24.728 36.0359 24.6053 35.8333 24.52C35.6306 24.424 35.3746 24.376 35.0653 24.376C34.8519 24.376 34.6119 24.392 34.3453 24.424C34.0786 24.456 33.8439 24.5093 33.6413 24.584V30.712C33.6413 30.84 33.6199 30.92 33.5773 30.952C33.5453 30.984 33.4546 31 33.3053 31H31.6573C31.5399 31 31.4546 30.984 31.4013 30.952C31.3479 30.9093 31.3213 30.8293 31.3213 30.712V19.608C31.3213 19.4053 31.4279 19.304 31.6413 19.304H33.3053C33.4546 19.304 33.5453 19.3253 33.5773 19.368C33.6199 19.4107 33.6413 19.4907 33.6413 19.608V22.632C33.9186 22.5467 34.2333 22.4827 34.5853 22.44C34.9479 22.3973 35.2573 22.376 35.5133 22.376C36.6759 22.376 37.5453 22.6853 38.1213 23.304C38.7079 23.9227 39.0013 24.7973 39.0013 25.928V30.712ZM45.1833 29.272C45.2899 29.272 45.4393 29.2667 45.6313 29.256C45.8339 29.2453 46.0473 29.224 46.2713 29.192V22.888C46.2713 22.7707 46.2873 22.6907 46.3193 22.648C46.3619 22.6053 46.4579 22.584 46.6073 22.584H48.2552C48.4793 22.584 48.5913 22.6853 48.5913 22.888V29.72C48.5913 30.0827 48.5166 30.3707 48.3673 30.584C48.2286 30.7973 47.9726 30.9467 47.5993 31.032C47.4713 31.0533 47.3113 31.0747 47.1193 31.096C46.9273 31.1173 46.7193 31.1333 46.4953 31.144C46.2819 31.1653 46.0686 31.176 45.8553 31.176C45.6419 31.1867 45.4553 31.192 45.2953 31.192C44.5273 31.192 43.8713 31.1173 43.3273 30.968C42.7939 30.8187 42.3566 30.5787 42.0153 30.248C41.6846 29.9173 41.4446 29.4907 41.2953 28.968C41.1459 28.4347 41.0713 27.7893 41.0713 27.032V22.888C41.0713 22.7707 41.0873 22.6907 41.1193 22.648C41.1619 22.6053 41.2579 22.584 41.4073 22.584H43.0713C43.2953 22.584 43.4073 22.6853 43.4073 22.888V27.176C43.4073 27.528 43.4286 27.8373 43.4713 28.104C43.5139 28.36 43.5993 28.5787 43.7273 28.76C43.8553 28.9307 44.0366 29.0587 44.2713 29.144C44.5059 29.2293 44.8099 29.272 45.1833 29.272ZM55.193 32.392C54.9477 33.128 54.5957 33.6507 54.137 33.96C53.6783 34.28 53.0703 34.44 52.313 34.44C52.0997 34.44 51.849 34.424 51.561 34.392C51.2837 34.36 51.0063 34.3013 50.729 34.216C50.601 34.184 50.5157 34.1467 50.473 34.104C50.441 34.0613 50.441 33.9813 50.473 33.864L50.745 32.6C50.777 32.472 50.8143 32.4027 50.857 32.392C50.8997 32.3813 50.9797 32.3867 51.097 32.408C51.2677 32.44 51.4117 32.4613 51.529 32.472C51.6463 32.4827 51.7637 32.488 51.881 32.488C52.2543 32.488 52.5477 32.424 52.761 32.296C52.9743 32.1787 53.1397 31.9333 53.257 31.56L53.545 30.696H53.081C52.8357 30.696 52.6597 30.6533 52.553 30.568C52.4463 30.4827 52.345 30.296 52.249 30.008L49.817 22.904C49.7743 22.7867 49.7743 22.7067 49.817 22.664C49.8703 22.6213 49.9397 22.6 50.025 22.6H51.897C52.057 22.6 52.1637 22.6213 52.217 22.664C52.281 22.696 52.329 22.7707 52.361 22.888L53.273 26.12L54.025 28.904H54.121L54.937 26.072L55.897 22.92C55.929 22.8027 55.9717 22.7227 56.025 22.68C56.0783 22.6267 56.185 22.6 56.345 22.6H58.249C58.4303 22.6 58.489 22.6853 58.425 22.856L55.193 32.408V32.392ZM63.2505 22.392C64.4985 22.392 65.4318 22.7067 66.0505 23.336C66.6798 23.9547 66.9945 24.8453 66.9945 26.008C66.9945 26.5627 66.8878 26.9413 66.6745 27.144C66.4612 27.3467 66.1678 27.448 65.7945 27.448H61.6985C61.7092 27.7893 61.7625 28.072 61.8585 28.296C61.9652 28.52 62.1038 28.7013 62.2745 28.84C62.4452 28.9787 62.6425 29.0747 62.8665 29.128C63.1012 29.1813 63.3518 29.208 63.6185 29.208C63.9278 29.208 64.2425 29.1707 64.5625 29.096C64.8825 29.0213 65.1812 28.9253 65.4585 28.808C65.5865 28.7653 65.6718 28.7547 65.7145 28.776C65.7678 28.7867 65.8158 28.8347 65.8585 28.92L66.3705 30.072C66.4132 30.168 66.4185 30.2427 66.3865 30.296C66.3652 30.3493 66.3118 30.4027 66.2265 30.456C65.8318 30.712 65.3732 30.8933 64.8505 31C64.3278 31.1173 63.8425 31.176 63.3945 31.176C61.9972 31.176 60.9625 30.8293 60.2905 30.136C59.6185 29.4427 59.2825 28.344 59.2825 26.84C59.2825 26.136 59.3732 25.512 59.5545 24.968C59.7465 24.4133 60.0132 23.944 60.3545 23.56C60.7065 23.176 61.1225 22.888 61.6025 22.696C62.0932 22.4933 62.6425 22.392 63.2505 22.392ZM63.2985 24.312C62.8612 24.312 62.5038 24.4667 62.2265 24.776C61.9492 25.0853 61.7892 25.48 61.7465 25.96H64.7385C64.7385 25.7253 64.7118 25.5067 64.6585 25.304C64.6158 25.1013 64.5412 24.9307 64.4345 24.792C64.3278 24.6427 64.1838 24.5253 64.0025 24.44C63.8212 24.3547 63.5865 24.312 63.2985 24.312ZM66.4025 21.032C66.4985 21.1173 66.5465 21.192 66.5465 21.256C66.5465 21.3093 66.5092 21.3733 66.4345 21.448L65.9865 21.944C65.9225 22.0187 65.8532 22.0507 65.7785 22.04C65.7038 22.0187 65.6238 21.9813 65.5385 21.928L63.2665 20.696L61.0585 21.896C60.9732 21.9493 60.8985 21.9813 60.8345 21.992C60.7705 21.992 60.7012 21.9493 60.6265 21.864L60.2105 21.432C60.1465 21.3467 60.1092 21.2827 60.0985 21.24C60.0985 21.1867 60.1358 21.1227 60.2105 21.048L62.3385 19.208C62.4878 19.08 62.6425 18.9787 62.8025 18.904C62.9732 18.8293 63.1278 18.792 63.2665 18.792C63.5758 18.792 63.9012 18.9307 64.2425 19.208L66.4025 21.032ZM66.4505 15.992C66.9305 15.992 67.3092 16.1147 67.5865 16.36C67.8638 16.6053 68.0025 16.936 68.0025 17.352C68.0025 17.5547 67.9598 17.7307 67.8745 17.88C67.7998 18.0187 67.7038 18.152 67.5865 18.28C67.4692 18.408 67.3465 18.536 67.2185 18.664C67.1012 18.7813 66.9945 18.92 66.8985 19.08C66.8772 19.208 66.8132 19.32 66.7065 19.416C66.6105 19.512 66.4932 19.56 66.3545 19.56H66.1945C66.0345 19.56 65.9012 19.512 65.7945 19.416C65.6985 19.3093 65.6505 19.176 65.6505 19.016C65.6505 18.856 65.6718 18.7227 65.7145 18.616C65.7572 18.4987 65.8158 18.3973 65.8905 18.312C65.9652 18.2267 66.0452 18.152 66.1305 18.088C66.2265 18.0133 66.3225 17.9333 66.4185 17.848C66.5252 17.7627 66.5945 17.6667 66.6265 17.56C66.6692 17.4427 66.6905 17.3627 66.6905 17.32C66.6905 17.2347 66.6052 17.1973 66.4345 17.208C66.2745 17.208 66.1198 17.2507 65.9705 17.336C65.7892 17.4533 65.6238 17.5173 65.4745 17.528C65.3252 17.528 65.1972 17.4213 65.0905 17.208C65.0052 17.0373 64.9732 16.8827 64.9945 16.744C65.0265 16.6053 65.0958 16.4933 65.2025 16.408C65.3945 16.2587 65.6025 16.152 65.8265 16.088C66.0505 16.024 66.2585 15.992 66.4505 15.992ZM72.1043 24.312C71.9976 24.312 71.8429 24.3173 71.6403 24.328C71.4483 24.328 71.2403 24.3493 71.0163 24.392V30.712C71.0163 30.8293 70.9949 30.9093 70.9523 30.952C70.9203 30.984 70.8296 31 70.6803 31H69.0323C68.9149 31 68.8296 30.984 68.7763 30.952C68.7229 30.9093 68.6963 30.8293 68.6963 30.712V23.848C68.6963 23.4853 68.7603 23.2027 68.8883 23C69.0163 22.7867 69.2829 22.6373 69.6883 22.552C69.7949 22.5307 69.9443 22.5147 70.1363 22.504C70.3389 22.4827 70.5523 22.4667 70.7763 22.456C71.0003 22.4347 71.2189 22.4187 71.4323 22.408C71.6563 22.3973 71.8483 22.392 72.0083 22.392C72.7549 22.392 73.4003 22.4667 73.9443 22.616C74.4883 22.7653 74.9363 23.0053 75.2883 23.336C75.6509 23.656 75.9176 24.0827 76.0883 24.616C76.2696 25.1387 76.3603 25.7787 76.3603 26.536V30.712C76.3603 30.8293 76.3389 30.9093 76.2963 30.952C76.2643 30.984 76.1736 31 76.0243 31H74.3603C74.2429 31 74.1576 30.984 74.1043 30.952C74.0509 30.9093 74.0243 30.8293 74.0243 30.712V26.392C74.0243 26.04 73.9923 25.736 73.9283 25.48C73.8749 25.224 73.7736 25.0107 73.6243 24.84C73.4856 24.6587 73.2883 24.5253 73.0323 24.44C72.7869 24.3547 72.4776 24.312 72.1043 24.312ZM85.376 33.992C85.376 34.1093 85.3547 34.184 85.312 34.216C85.28 34.248 85.1893 34.264 85.04 34.264H83.376C83.2587 34.264 83.1733 34.248 83.12 34.216C83.0667 34.184 83.04 34.1093 83.04 33.992V23.56C83.04 23.4427 83.056 23.352 83.088 23.288C83.1307 23.2133 83.2213 23.1387 83.36 23.064C83.872 22.8293 84.4427 22.664 85.072 22.568C85.712 22.472 86.32 22.424 86.896 22.424C87.6533 22.424 88.288 22.5413 88.8 22.776C89.3227 23 89.7387 23.3093 90.048 23.704C90.368 24.088 90.5973 24.5467 90.736 25.08C90.8747 25.6133 90.944 26.184 90.944 26.792C90.944 27.3893 90.8693 27.9547 90.72 28.488C90.5707 29.0107 90.3413 29.4693 90.032 29.864C89.7227 30.2587 89.328 30.5733 88.848 30.808C88.3787 31.032 87.824 31.144 87.184 31.144C86.864 31.144 86.5653 31.128 86.288 31.096C86.0213 31.0747 85.7173 31.0267 85.376 30.952V33.992ZM88.512 26.744C88.512 26.3067 88.4693 25.9387 88.384 25.64C88.2987 25.3413 88.1707 25.1013 88 24.92C87.84 24.7387 87.6373 24.6107 87.392 24.536C87.1573 24.4613 86.8907 24.424 86.592 24.424C86.4427 24.424 86.2453 24.44 86 24.472C85.7653 24.504 85.5573 24.5467 85.376 24.6V28.968C85.6533 29.0427 85.8987 29.0907 86.112 29.112C86.336 29.1333 86.5333 29.144 86.704 29.144C87.2373 29.144 87.6693 28.9627 88 28.6C88.3413 28.2373 88.512 27.6187 88.512 26.744ZM100.376 30.712C100.376 30.84 100.355 30.92 100.312 30.952C100.27 30.984 100.174 31 100.024 31H98.3603C98.2429 31 98.1576 30.984 98.1043 30.952C98.0509 30.9093 98.0243 30.8293 98.0243 30.712V26.232C98.0243 25.9547 97.9976 25.704 97.9443 25.48C97.9016 25.2453 97.8163 25.048 97.6883 24.888C97.5709 24.728 97.4109 24.6053 97.2083 24.52C97.0056 24.424 96.7496 24.376 96.4403 24.376C96.2269 24.376 95.9869 24.392 95.7203 24.424C95.4536 24.456 95.2189 24.5093 95.0163 24.584V30.712C95.0163 30.84 94.9949 30.92 94.9523 30.952C94.9203 30.984 94.8296 31 94.6803 31H93.0323C92.9149 31 92.8296 30.984 92.7763 30.952C92.7229 30.9093 92.6963 30.8293 92.6963 30.712V19.608C92.6963 19.4053 92.8029 19.304 93.0163 19.304H94.6803C94.8296 19.304 94.9203 19.3253 94.9523 19.368C94.9949 19.4107 95.0163 19.4907 95.0163 19.608V22.632C95.2936 22.5467 95.6083 22.4827 95.9603 22.44C96.3229 22.3973 96.6323 22.376 96.8883 22.376C98.0509 22.376 98.9203 22.6853 99.4963 23.304C100.083 23.9227 100.376 24.7973 100.376 25.928V30.712ZM109.582 29.96C109.582 30.0987 109.561 30.216 109.518 30.312C109.486 30.408 109.396 30.4987 109.246 30.584C109.001 30.7013 108.734 30.7973 108.446 30.872C108.169 30.9467 107.881 31.0053 107.582 31.048C107.294 31.0907 107.001 31.1227 106.702 31.144C106.404 31.1653 106.121 31.176 105.854 31.176C105.129 31.176 104.526 31.1067 104.046 30.968C103.577 30.8293 103.198 30.6427 102.91 30.408C102.622 30.1627 102.42 29.88 102.302 29.56C102.185 29.2293 102.126 28.8773 102.126 28.504C102.126 28.088 102.196 27.7093 102.334 27.368C102.473 27.016 102.681 26.712 102.958 26.456C103.236 26.2 103.582 26.0027 103.998 25.864C104.425 25.7147 104.926 25.64 105.502 25.64H107.262V25.384C107.262 25.2347 107.246 25.0907 107.214 24.952C107.182 24.8133 107.113 24.696 107.006 24.6C106.91 24.4933 106.772 24.408 106.59 24.344C106.409 24.28 106.169 24.248 105.87 24.248C105.71 24.248 105.529 24.2587 105.326 24.28C105.124 24.2907 104.921 24.312 104.718 24.344C104.516 24.3653 104.318 24.3973 104.126 24.44C103.934 24.472 103.764 24.5093 103.614 24.552C103.476 24.584 103.38 24.584 103.326 24.552C103.273 24.52 103.236 24.4507 103.214 24.344L102.958 23.224C102.926 23.1067 102.921 23.0267 102.942 22.984C102.974 22.9307 103.033 22.888 103.118 22.856C103.598 22.6853 104.1 22.5627 104.622 22.488C105.156 22.4133 105.684 22.376 106.206 22.376C107.369 22.376 108.222 22.6267 108.766 23.128C109.31 23.6187 109.582 24.3493 109.582 25.32V29.96ZM107.246 27.192H105.982C105.833 27.192 105.673 27.2027 105.502 27.224C105.332 27.2453 105.172 27.2987 105.022 27.384C104.884 27.4587 104.766 27.5707 104.67 27.72C104.574 27.8693 104.526 28.072 104.526 28.328C104.526 28.7013 104.649 28.9627 104.894 29.112C105.15 29.2613 105.492 29.336 105.918 29.336C105.982 29.336 106.068 29.336 106.174 29.336C106.281 29.3253 106.393 29.3147 106.51 29.304C106.638 29.2827 106.766 29.2613 106.894 29.24C107.022 29.208 107.14 29.1707 107.246 29.128V27.192ZM109.294 21.032C109.39 21.1173 109.438 21.192 109.438 21.256C109.438 21.3093 109.401 21.3733 109.326 21.448L108.878 21.944C108.814 22.0187 108.745 22.0507 108.67 22.04C108.596 22.0187 108.516 21.9813 108.43 21.928L106.158 20.696L103.95 21.896C103.865 21.9493 103.79 21.9813 103.726 21.992C103.662 21.992 103.593 21.9493 103.518 21.864L103.102 21.432C103.038 21.3467 103.001 21.2827 102.99 21.24C102.99 21.1867 103.028 21.1227 103.102 21.048L105.23 19.208C105.38 19.08 105.534 18.9787 105.694 18.904C105.865 18.8293 106.02 18.792 106.158 18.792C106.468 18.792 106.793 18.9307 107.134 19.208L109.294 21.032ZM110.83 18.584C110.916 18.6587 110.953 18.7173 110.942 18.76C110.942 18.8027 110.916 18.856 110.862 18.92L110.254 19.656C110.201 19.7093 110.148 19.7467 110.094 19.768C110.052 19.7787 109.977 19.7573 109.87 19.704L106.782 18.12C106.718 18.0987 106.681 18.0613 106.67 18.008C106.66 17.944 106.686 17.88 106.75 17.816L107.854 16.552C107.94 16.4667 108.009 16.4347 108.062 16.456C108.116 16.4773 108.174 16.5147 108.238 16.568L110.83 18.584ZM115.073 24.312C114.966 24.312 114.812 24.3173 114.609 24.328C114.417 24.328 114.209 24.3493 113.985 24.392V30.712C113.985 30.8293 113.964 30.9093 113.921 30.952C113.889 30.984 113.798 31 113.649 31H112.001C111.884 31 111.798 30.984 111.745 30.952C111.692 30.9093 111.665 30.8293 111.665 30.712V23.848C111.665 23.4853 111.729 23.2027 111.857 23C111.985 22.7867 112.252 22.6373 112.657 22.552C112.764 22.5307 112.913 22.5147 113.105 22.504C113.308 22.4827 113.521 22.4667 113.745 22.456C113.969 22.4347 114.188 22.4187 114.401 22.408C114.625 22.3973 114.817 22.392 114.977 22.392C115.724 22.392 116.369 22.4667 116.913 22.616C117.457 22.7653 117.905 23.0053 118.257 23.336C118.62 23.656 118.886 24.0827 119.057 24.616C119.238 25.1387 119.329 25.7787 119.329 26.536V30.712C119.329 30.8293 119.308 30.9093 119.265 30.952C119.233 30.984 119.142 31 118.993 31H117.329C117.212 31 117.126 30.984 117.073 30.952C117.02 30.9093 116.993 30.8293 116.993 30.712V26.392C116.993 26.04 116.961 25.736 116.897 25.48C116.844 25.224 116.742 25.0107 116.593 24.84C116.454 24.6587 116.257 24.5253 116.001 24.44C115.756 24.3547 115.446 24.312 115.073 24.312Z" fill="#F37142"/>
</g>
</g>
</g>
<defs>
<filter id="filter0_d_614_25809" x="0" y="0" width="141" height="50" filterUnits="userSpaceOnUse" color-interpolation-filters="sRGB">
<feFlood flood-opacity="0" result="BackgroundImageFix"/>
<feColorMatrix in="SourceAlpha" type="matrix" values="0 0 0 0 0 0 0 0 0 0 0 0 0 0 0 0 0 0 127 0" result="hardAlpha"/>
<feOffset dy="2"/>
<feComposite in2="hardAlpha" operator="out"/>
<feColorMatrix type="matrix" values="0 0 0 0 0.960784 0 0 0 0 0.552941 0 0 0 0 0.407843 0 0 0 1 0"/>
<feBlend mode="normal" in2="BackgroundImageFix" result="effect1_dropShadow_614_25809"/>
<feBlend mode="normal" in="SourceGraphic" in2="effect1_dropShadow_614_25809" result="shape"/>
</filter>
<filter id="filter1_d_614_25809" x="-2" y="-1" width="145" height="52" filterUnits="userSpaceOnUse" color-interpolation-filters="sRGB">
<feFlood flood-opacity="0" result="BackgroundImageFix"/>
<feColorMatrix in="SourceAlpha" type="matrix" values="0 0 0 0 0 0 0 0 0 0 0 0 0 0 0 0 0 0 127 0" result="hardAlpha"/>
<feOffset dy="1"/>
<feGaussianBlur stdDeviation="1"/>
<feColorMatrix type="matrix" values="0 0 0 0 0.0627451 0 0 0 0 0.0941176 0 0 0 0 0.156863 0 0 0 0.05 0"/>
<feBlend mode="normal" in2="BackgroundImageFix" result="effect1_dropShadow_614_25809"/>
<feBlend mode="normal" in="SourceGraphic" in2="effect1_dropShadow_614_25809" result="shape"/>
</filter>
<clipPath id="clip0_614_25809">
<rect width="141" height="48" rx="16" fill="white"/>
</clipPath>
</defs>
</svg>
