<svg width="170" height="51" viewBox="0 0 170 51" fill="none" xmlns="http://www.w3.org/2000/svg">
<g filter="url(#filter0_d_5851_14455)">
<g clip-path="url(#clip0_5851_14455)">
<g filter="url(#filter1_d_5851_14455)">
<rect y="0.5" width="170" height="48" rx="16" fill="white"/>
<rect x="0.5" y="1" width="169" height="47" rx="15.5" stroke="#F58D68"/>
<path d="M54.428 27.66L52.492 31.132C52.396 31.2813 52.3053 31.3827 52.22 31.436C52.1347 31.4787 51.9907 31.5 51.788 31.5H49.82C49.724 31.5 49.66 31.468 49.628 31.404C49.6067 31.3293 49.6173 31.2547 49.66 31.18L53.068 25.676L49.948 20.588C49.8947 20.524 49.884 20.46 49.916 20.396C49.948 20.3213 50.0227 20.284 50.14 20.284H52.012C52.2253 20.284 52.3693 20.3053 52.444 20.348C52.5293 20.3907 52.6147 20.4867 52.7 20.636L54.46 23.756L56.204 20.636C56.2893 20.4867 56.3693 20.3907 56.444 20.348C56.5293 20.3053 56.6787 20.284 56.892 20.284H58.732C58.8493 20.284 58.9187 20.3213 58.94 20.396C58.972 20.46 58.9613 20.5293 58.908 20.604L55.82 25.66L59.228 31.18C59.2707 31.2547 59.276 31.3293 59.244 31.404C59.212 31.468 59.1533 31.5 59.068 31.5H57.068C56.876 31.5 56.732 31.4787 56.636 31.436C56.5507 31.3827 56.4653 31.2813 56.38 31.132L54.428 27.66ZM67.5666 30.46C67.5666 30.5987 67.5453 30.716 67.5026 30.812C67.4706 30.908 67.38 30.9987 67.2306 31.084C66.9853 31.2013 66.7186 31.2973 66.4306 31.372C66.1533 31.4467 65.8653 31.5053 65.5666 31.548C65.2786 31.5907 64.9853 31.6227 64.6866 31.644C64.388 31.6653 64.1053 31.676 63.8386 31.676C63.1133 31.676 62.5106 31.6067 62.0306 31.468C61.5613 31.3293 61.1826 31.1427 60.8946 30.908C60.6066 30.6627 60.404 30.38 60.2866 30.06C60.1693 29.7293 60.1106 29.3773 60.1106 29.004C60.1106 28.588 60.18 28.2093 60.3186 27.868C60.4573 27.516 60.6653 27.212 60.9426 26.956C61.22 26.7 61.5666 26.5027 61.9826 26.364C62.4093 26.2147 62.9106 26.14 63.4866 26.14H65.2466V25.884C65.2466 25.7347 65.2306 25.5907 65.1986 25.452C65.1666 25.3133 65.0973 25.196 64.9906 25.1C64.8946 24.9933 64.756 24.908 64.5746 24.844C64.3933 24.78 64.1533 24.748 63.8546 24.748C63.6946 24.748 63.5133 24.7587 63.3106 24.78C63.108 24.7907 62.9053 24.812 62.7026 24.844C62.5 24.8653 62.3026 24.8973 62.1106 24.94C61.9186 24.972 61.748 25.0093 61.5986 25.052C61.46 25.084 61.364 25.084 61.3106 25.052C61.2573 25.02 61.22 24.9507 61.1986 24.844L60.9426 23.724C60.9106 23.6067 60.9053 23.5267 60.9266 23.484C60.9586 23.4307 61.0173 23.388 61.1026 23.356C61.5826 23.1853 62.084 23.0627 62.6066 22.988C63.14 22.9133 63.668 22.876 64.1906 22.876C65.3533 22.876 66.2066 23.1267 66.7506 23.628C67.2946 24.1187 67.5666 24.8493 67.5666 25.82V30.46ZM65.2306 27.692H63.9666C63.8173 27.692 63.6573 27.7027 63.4866 27.724C63.316 27.7453 63.156 27.7987 63.0066 27.884C62.868 27.9587 62.7506 28.0707 62.6546 28.22C62.5586 28.3693 62.5106 28.572 62.5106 28.828C62.5106 29.2013 62.6333 29.4627 62.8786 29.612C63.1346 29.7613 63.476 29.836 63.9026 29.836C63.9666 29.836 64.052 29.836 64.1586 29.836C64.2653 29.8253 64.3773 29.8147 64.4946 29.804C64.6226 29.7827 64.7506 29.7613 64.8786 29.74C65.0066 29.708 65.124 29.6707 65.2306 29.628V27.692ZM65.0546 19.228C65.1186 19.1747 65.1773 19.1373 65.2306 19.116C65.284 19.0947 65.3533 19.1267 65.4386 19.212L66.5426 20.476C66.6066 20.54 66.6333 20.604 66.6226 20.668C66.612 20.7213 66.5746 20.7587 66.5106 20.78L63.4226 22.364C63.316 22.4173 63.236 22.4387 63.1826 22.428C63.14 22.4067 63.092 22.3693 63.0386 22.316L62.4306 21.58C62.3773 21.516 62.3453 21.4627 62.3346 21.42C62.3346 21.3773 62.3773 21.3187 62.4626 21.244L65.0546 19.228ZM73.5374 29.596C73.8787 29.596 74.2094 29.5587 74.5294 29.484C74.86 29.3987 75.1427 29.3133 75.3774 29.228C75.516 29.1747 75.6067 29.1587 75.6494 29.18C75.7027 29.1907 75.7507 29.2547 75.7934 29.372L76.2414 30.572C76.2947 30.6787 76.316 30.764 76.3054 30.828C76.3054 30.892 76.2467 30.956 76.1294 31.02C75.66 31.276 75.1587 31.4467 74.6254 31.532C74.092 31.628 73.6067 31.676 73.1694 31.676C71.9107 31.676 70.956 31.3133 70.3054 30.588C69.6547 29.8627 69.3294 28.7747 69.3294 27.324C69.3294 26.6413 69.42 26.028 69.6014 25.484C69.7934 24.9293 70.06 24.46 70.4014 24.076C70.7427 23.692 71.1587 23.3987 71.6494 23.196C72.1507 22.9933 72.7054 22.892 73.3134 22.892C73.7614 22.892 74.204 22.94 74.6414 23.036C75.0787 23.1213 75.4787 23.2547 75.8414 23.436C75.98 23.5 76.0547 23.5587 76.0654 23.612C76.0867 23.6653 76.0707 23.756 76.0174 23.884L75.5694 25.116C75.516 25.2333 75.4574 25.2973 75.3934 25.308C75.3294 25.3187 75.2227 25.3027 75.0734 25.26C74.796 25.1747 74.524 25.1053 74.2574 25.052C73.9907 24.9987 73.7347 24.972 73.4894 24.972C73.1694 24.972 72.8974 25.036 72.6734 25.164C72.46 25.292 72.284 25.4627 72.1454 25.676C72.0067 25.8893 71.9054 26.14 71.8414 26.428C71.7774 26.7053 71.7454 27.004 71.7454 27.324C71.7454 27.6547 71.772 27.9587 71.8254 28.236C71.8787 28.5133 71.9747 28.7533 72.1134 28.956C72.252 29.1587 72.4334 29.3187 72.6574 29.436C72.892 29.5427 73.1854 29.596 73.5374 29.596ZM85.823 24.812C85.7163 24.812 85.5617 24.8173 85.359 24.828C85.167 24.828 84.959 24.8493 84.735 24.892V31.212C84.735 31.3293 84.7137 31.4093 84.671 31.452C84.639 31.484 84.5483 31.5 84.399 31.5H82.751C82.6337 31.5 82.5483 31.484 82.495 31.452C82.4417 31.4093 82.415 31.3293 82.415 31.212V24.348C82.415 23.9853 82.479 23.7027 82.607 23.5C82.735 23.2867 83.0017 23.1373 83.407 23.052C83.5137 23.0307 83.663 23.0147 83.855 23.004C84.0577 22.9827 84.271 22.9667 84.495 22.956C84.719 22.9347 84.9377 22.9187 85.151 22.908C85.375 22.8973 85.567 22.892 85.727 22.892C86.4737 22.892 87.119 22.9667 87.663 23.116C88.207 23.2653 88.655 23.5053 89.007 23.836C89.3697 24.156 89.6363 24.5827 89.807 25.116C89.9883 25.6387 90.079 26.2787 90.079 27.036V31.212C90.079 31.3293 90.0577 31.4093 90.015 31.452C89.983 31.484 89.8923 31.5 89.743 31.5H88.079C87.9617 31.5 87.8763 31.484 87.823 31.452C87.7697 31.4093 87.743 31.3293 87.743 31.212V26.892C87.743 26.54 87.711 26.236 87.647 25.98C87.5937 25.724 87.4923 25.5107 87.343 25.34C87.2043 25.1587 87.007 25.0253 86.751 24.94C86.5057 24.8547 86.1963 24.812 85.823 24.812ZM99.845 31.212C99.845 31.34 99.8237 31.42 99.781 31.452C99.7383 31.484 99.6423 31.5 99.493 31.5H97.829C97.7117 31.5 97.6263 31.484 97.573 31.452C97.5197 31.4093 97.493 31.3293 97.493 31.212V26.732C97.493 26.4547 97.4663 26.204 97.413 25.98C97.3703 25.7453 97.285 25.548 97.157 25.388C97.0397 25.228 96.8797 25.1053 96.677 25.02C96.4743 24.924 96.2183 24.876 95.909 24.876C95.6957 24.876 95.4557 24.892 95.189 24.924C94.9223 24.956 94.6877 25.0093 94.485 25.084V31.212C94.485 31.34 94.4637 31.42 94.421 31.452C94.389 31.484 94.2983 31.5 94.149 31.5H92.501C92.3837 31.5 92.2983 31.484 92.245 31.452C92.1917 31.4093 92.165 31.3293 92.165 31.212V20.108C92.165 19.9053 92.2717 19.804 92.485 19.804H94.149C94.2983 19.804 94.389 19.8253 94.421 19.868C94.4637 19.9107 94.485 19.9907 94.485 20.108V23.132C94.7623 23.0467 95.077 22.9827 95.429 22.94C95.7917 22.8973 96.101 22.876 96.357 22.876C97.5197 22.876 98.389 23.1853 98.965 23.804C99.5517 24.4227 99.845 25.2973 99.845 26.428V31.212ZM106.539 33.228C106.539 33.5267 106.432 33.772 106.219 33.964C106.016 34.1667 105.771 34.268 105.483 34.268C105.184 34.268 104.928 34.1667 104.715 33.964C104.512 33.772 104.411 33.5267 104.411 33.228C104.411 32.94 104.512 32.6893 104.715 32.476C104.928 32.2733 105.184 32.172 105.483 32.172C105.771 32.172 106.016 32.2733 106.219 32.476C106.432 32.6893 106.539 32.94 106.539 33.228ZM109.051 30.46C109.051 30.5987 109.03 30.716 108.987 30.812C108.955 30.908 108.864 30.9987 108.715 31.084C108.47 31.2013 108.203 31.2973 107.915 31.372C107.638 31.4467 107.35 31.5053 107.051 31.548C106.763 31.5907 106.47 31.6227 106.171 31.644C105.872 31.6653 105.59 31.676 105.323 31.676C104.598 31.676 103.995 31.6067 103.515 31.468C103.046 31.3293 102.667 31.1427 102.379 30.908C102.091 30.6627 101.888 30.38 101.771 30.06C101.654 29.7293 101.595 29.3773 101.595 29.004C101.595 28.588 101.664 28.2093 101.803 27.868C101.942 27.516 102.15 27.212 102.427 26.956C102.704 26.7 103.051 26.5027 103.467 26.364C103.894 26.2147 104.395 26.14 104.971 26.14H106.731V25.884C106.731 25.7347 106.715 25.5907 106.683 25.452C106.651 25.3133 106.582 25.196 106.475 25.1C106.379 24.9933 106.24 24.908 106.059 24.844C105.878 24.78 105.638 24.748 105.339 24.748C105.179 24.748 104.998 24.7587 104.795 24.78C104.592 24.7907 104.39 24.812 104.187 24.844C103.984 24.8653 103.787 24.8973 103.595 24.94C103.403 24.972 103.232 25.0093 103.083 25.052C102.944 25.084 102.848 25.084 102.795 25.052C102.742 25.02 102.704 24.9507 102.683 24.844L102.427 23.724C102.395 23.6067 102.39 23.5267 102.411 23.484C102.443 23.4307 102.502 23.388 102.587 23.356C103.067 23.1853 103.568 23.0627 104.091 22.988C104.624 22.9133 105.152 22.876 105.675 22.876C106.838 22.876 107.691 23.1267 108.235 23.628C108.779 24.1187 109.051 24.8493 109.051 25.82V30.46ZM106.715 27.692H105.451C105.302 27.692 105.142 27.7027 104.971 27.724C104.8 27.7453 104.64 27.7987 104.491 27.884C104.352 27.9587 104.235 28.0707 104.139 28.22C104.043 28.3693 103.995 28.572 103.995 28.828C103.995 29.2013 104.118 29.4627 104.363 29.612C104.619 29.7613 104.96 29.836 105.387 29.836C105.451 29.836 105.536 29.836 105.643 29.836C105.75 29.8253 105.862 29.8147 105.979 29.804C106.107 29.7827 106.235 29.7613 106.363 29.74C106.491 29.708 106.608 29.6707 106.715 29.628V27.692ZM108.763 21.532C108.859 21.6173 108.907 21.692 108.907 21.756C108.907 21.8093 108.87 21.8733 108.795 21.948L108.347 22.444C108.283 22.5187 108.214 22.5507 108.139 22.54C108.064 22.5187 107.984 22.4813 107.899 22.428L105.627 21.196L103.419 22.396C103.334 22.4493 103.259 22.4813 103.195 22.492C103.131 22.492 103.062 22.4493 102.987 22.364L102.571 21.932C102.507 21.8467 102.47 21.7827 102.459 21.74C102.459 21.6867 102.496 21.6227 102.571 21.548L104.699 19.708C104.848 19.58 105.003 19.4787 105.163 19.404C105.334 19.3293 105.488 19.292 105.627 19.292C105.936 19.292 106.262 19.4307 106.603 19.708L108.763 21.532ZM114.542 24.812C114.435 24.812 114.28 24.8173 114.078 24.828C113.886 24.828 113.678 24.8493 113.454 24.892V31.212C113.454 31.3293 113.432 31.4093 113.39 31.452C113.358 31.484 113.267 31.5 113.118 31.5H111.47C111.352 31.5 111.267 31.484 111.214 31.452C111.16 31.4093 111.134 31.3293 111.134 31.212V24.348C111.134 23.9853 111.198 23.7027 111.326 23.5C111.454 23.2867 111.72 23.1373 112.126 23.052C112.232 23.0307 112.382 23.0147 112.574 23.004C112.776 22.9827 112.99 22.9667 113.214 22.956C113.438 22.9347 113.656 22.9187 113.87 22.908C114.094 22.8973 114.286 22.892 114.446 22.892C115.192 22.892 115.838 22.9667 116.382 23.116C116.926 23.2653 117.374 23.5053 117.726 23.836C118.088 24.156 118.355 24.5827 118.526 25.116C118.707 25.6387 118.798 26.2787 118.798 27.036V31.212C118.798 31.3293 118.776 31.4093 118.734 31.452C118.702 31.484 118.611 31.5 118.462 31.5H116.798C116.68 31.5 116.595 31.484 116.542 31.452C116.488 31.4093 116.462 31.3293 116.462 31.212V26.892C116.462 26.54 116.43 26.236 116.366 25.98C116.312 25.724 116.211 25.5107 116.062 25.34C115.923 25.1587 115.726 25.0253 115.47 24.94C115.224 24.8547 114.915 24.812 114.542 24.812Z" fill="#F37142"/>
</g>
</g>
</g>
<defs>
<filter id="filter0_d_5851_14455" x="0" y="0.5" width="170" height="50" filterUnits="userSpaceOnUse" color-interpolation-filters="sRGB">
<feFlood flood-opacity="0" result="BackgroundImageFix"/>
<feColorMatrix in="SourceAlpha" type="matrix" values="0 0 0 0 0 0 0 0 0 0 0 0 0 0 0 0 0 0 127 0" result="hardAlpha"/>
<feOffset dy="2"/>
<feComposite in2="hardAlpha" operator="out"/>
<feColorMatrix type="matrix" values="0 0 0 0 0.960784 0 0 0 0 0.552941 0 0 0 0 0.407843 0 0 0 1 0"/>
<feBlend mode="normal" in2="BackgroundImageFix" result="effect1_dropShadow_5851_14455"/>
<feBlend mode="normal" in="SourceGraphic" in2="effect1_dropShadow_5851_14455" result="shape"/>
</filter>
<filter id="filter1_d_5851_14455" x="-2" y="-0.5" width="174" height="52" filterUnits="userSpaceOnUse" color-interpolation-filters="sRGB">
<feFlood flood-opacity="0" result="BackgroundImageFix"/>
<feColorMatrix in="SourceAlpha" type="matrix" values="0 0 0 0 0 0 0 0 0 0 0 0 0 0 0 0 0 0 127 0" result="hardAlpha"/>
<feOffset dy="1"/>
<feGaussianBlur stdDeviation="1"/>
<feColorMatrix type="matrix" values="0 0 0 0 0.0627451 0 0 0 0 0.0941176 0 0 0 0 0.156863 0 0 0 0.05 0"/>
<feBlend mode="normal" in2="BackgroundImageFix" result="effect1_dropShadow_5851_14455"/>
<feBlend mode="normal" in="SourceGraphic" in2="effect1_dropShadow_5851_14455" result="shape"/>
</filter>
<clipPath id="clip0_5851_14455">
<rect y="0.5" width="170" height="48" rx="16" fill="white"/>
</clipPath>
</defs>
</svg>
