<svg width="116" height="51" viewBox="0 0 116 51" fill="none" xmlns="http://www.w3.org/2000/svg">
<g filter="url(#filter0_d_5839_17540)">
<g clip-path="url(#clip0_5839_17540)">
<g filter="url(#filter1_d_5839_17540)">
<rect y="0.983398" width="116" height="48" rx="16" fill="#32D583"/>
<rect x="0.5" y="1.4834" width="115" height="47" rx="15.5" stroke="#039855"/>
<path d="M36.008 22.5434C36.008 22.7567 35.9013 22.8634 35.688 22.8634H32.792V31.6474C32.792 31.7861 32.7653 31.8767 32.712 31.9194C32.6693 31.9621 32.568 31.9834 32.408 31.9834H30.696C30.568 31.9834 30.472 31.9621 30.408 31.9194C30.3547 31.8661 30.328 31.7754 30.328 31.6474V22.8634H27.496C27.2933 22.8634 27.192 22.7567 27.192 22.5434V21.1194C27.192 20.9807 27.2133 20.8901 27.256 20.8474C27.2987 20.8047 27.3787 20.7834 27.496 20.7834H35.688C35.816 20.7834 35.9013 20.8047 35.944 20.8474C35.9867 20.8901 36.008 20.9807 36.008 21.1194V22.5434ZM39.5751 21.3914C39.5751 21.7647 39.4418 22.0794 39.1751 22.3354C38.9191 22.5807 38.6045 22.7034 38.2311 22.7034C37.8685 22.7034 37.5538 22.5807 37.2871 22.3354C37.0311 22.0794 36.9031 21.7647 36.9031 21.3914C36.9031 21.1994 36.9351 21.0234 36.9991 20.8634C37.0738 20.7034 37.1698 20.5647 37.2871 20.4474C37.4151 20.3301 37.5591 20.2394 37.7191 20.1754C37.8791 20.1007 38.0498 20.0634 38.2311 20.0634C38.4125 20.0634 38.5831 20.1007 38.7431 20.1754C38.9138 20.2394 39.0578 20.3301 39.1751 20.4474C39.3031 20.5647 39.3991 20.7034 39.4631 20.8634C39.5378 21.0234 39.5751 21.1994 39.5751 21.3914ZM39.3671 31.6954C39.3671 31.8127 39.3458 31.8927 39.3031 31.9354C39.2605 31.9674 39.1645 31.9834 39.0151 31.9834H37.3831C37.2658 31.9834 37.1805 31.9674 37.1271 31.9354C37.0738 31.8927 37.0471 31.8127 37.0471 31.6954V23.8714C37.0471 23.7541 37.0738 23.6794 37.1271 23.6474C37.1805 23.6047 37.2658 23.5834 37.3831 23.5834H39.0151C39.1645 23.5834 39.2605 23.6047 39.3031 23.6474C39.3458 23.6794 39.3671 23.7541 39.3671 23.8714V31.6954ZM45.3755 23.3754C46.6235 23.3754 47.5568 23.6901 48.1755 24.3194C48.8048 24.9381 49.1195 25.8287 49.1195 26.9914C49.1195 27.5461 49.0128 27.9247 48.7995 28.1274C48.5862 28.3301 48.2928 28.4314 47.9195 28.4314H43.8235C43.8342 28.7727 43.8875 29.0554 43.9835 29.2794C44.0902 29.5034 44.2288 29.6847 44.3995 29.8234C44.5702 29.9621 44.7675 30.0581 44.9915 30.1114C45.2262 30.1647 45.4768 30.1914 45.7435 30.1914C46.0528 30.1914 46.3675 30.1541 46.6875 30.0794C47.0075 30.0047 47.3062 29.9087 47.5835 29.7914C47.7115 29.7487 47.7968 29.7381 47.8395 29.7594C47.8928 29.7701 47.9408 29.8181 47.9835 29.9034L48.4955 31.0554C48.5382 31.1514 48.5435 31.2261 48.5115 31.2794C48.4902 31.3327 48.4368 31.3861 48.3515 31.4394C47.9568 31.6954 47.4982 31.8767 46.9755 31.9834C46.4528 32.1007 45.9675 32.1594 45.5195 32.1594C44.1222 32.1594 43.0875 31.8127 42.4155 31.1194C41.7435 30.4261 41.4075 29.3274 41.4075 27.8234C41.4075 27.1194 41.4982 26.4954 41.6795 25.9514C41.8715 25.3967 42.1382 24.9274 42.4795 24.5434C42.8315 24.1594 43.2475 23.8714 43.7275 23.6794C44.2182 23.4767 44.7675 23.3754 45.3755 23.3754ZM45.4235 25.2954C44.9862 25.2954 44.6288 25.4501 44.3515 25.7594C44.0742 26.0687 43.9142 26.4634 43.8715 26.9434H46.8635C46.8635 26.7087 46.8368 26.4901 46.7835 26.2874C46.7408 26.0847 46.6662 25.9141 46.5595 25.7754C46.4528 25.6261 46.3088 25.5087 46.1275 25.4234C45.9462 25.3381 45.7115 25.2954 45.4235 25.2954ZM48.5275 22.0154C48.6235 22.1007 48.6715 22.1754 48.6715 22.2394C48.6715 22.2927 48.6342 22.3567 48.5595 22.4314L48.1115 22.9274C48.0475 23.0021 47.9782 23.0341 47.9035 23.0234C47.8288 23.0021 47.7488 22.9647 47.6635 22.9114L45.3915 21.6794L43.1835 22.8794C43.0982 22.9327 43.0235 22.9647 42.9595 22.9754C42.8955 22.9754 42.8262 22.9327 42.7515 22.8474L42.3355 22.4154C42.2715 22.3301 42.2342 22.2661 42.2235 22.2234C42.2235 22.1701 42.2608 22.1061 42.3355 22.0314L44.4635 20.1914C44.6128 20.0634 44.7675 19.9621 44.9275 19.8874C45.0982 19.8127 45.2528 19.7754 45.3915 19.7754C45.7008 19.7754 46.0262 19.9141 46.3675 20.1914L48.5275 22.0154ZM50.0795 17.6314C50.1435 17.5781 50.2022 17.5407 50.2555 17.5194C50.3088 17.4981 50.3782 17.5301 50.4635 17.6154L51.5675 18.8794C51.6315 18.9434 51.6582 19.0074 51.6475 19.0714C51.6368 19.1247 51.5995 19.1621 51.5355 19.1834L48.4475 20.7674C48.3408 20.8207 48.2608 20.8421 48.2075 20.8314C48.1648 20.8101 48.1168 20.7727 48.0635 20.7194L47.4555 19.9834C47.4022 19.9194 47.3702 19.8661 47.3595 19.8234C47.3595 19.7807 47.4022 19.7221 47.4875 19.6474L50.0795 17.6314ZM53.1573 34.9754C53.1573 35.0927 53.1359 35.1674 53.0933 35.1994C53.0613 35.2314 52.9706 35.2474 52.8213 35.2474H51.1573C51.0399 35.2474 50.9546 35.2314 50.9013 35.1994C50.8479 35.1674 50.8213 35.0927 50.8213 34.9754V24.5434C50.8213 24.4261 50.8373 24.3354 50.8693 24.2714C50.9119 24.1967 51.0026 24.1221 51.1413 24.0474C51.6533 23.8127 52.2239 23.6474 52.8533 23.5514C53.4933 23.4554 54.1013 23.4074 54.6773 23.4074C55.4346 23.4074 56.0693 23.5247 56.5813 23.7594C57.1039 23.9834 57.5199 24.2927 57.8293 24.6874C58.1493 25.0714 58.3786 25.5301 58.5173 26.0634C58.6559 26.5967 58.7253 27.1674 58.7253 27.7754C58.7253 28.3727 58.6506 28.9381 58.5013 29.4714C58.3519 29.9941 58.1226 30.4527 57.8133 30.8474C57.5039 31.2421 57.1093 31.5567 56.6293 31.7914C56.1599 32.0154 55.6053 32.1274 54.9653 32.1274C54.6453 32.1274 54.3466 32.1114 54.0693 32.0794C53.8026 32.0581 53.4986 32.0101 53.1573 31.9354V34.9754ZM56.2933 27.7274C56.2933 27.2901 56.2506 26.9221 56.1653 26.6234C56.0799 26.3247 55.9519 26.0847 55.7813 25.9034C55.6213 25.7221 55.4186 25.5941 55.1733 25.5194C54.9386 25.4447 54.6719 25.4074 54.3733 25.4074C54.2239 25.4074 54.0266 25.4234 53.7812 25.4554C53.5466 25.4874 53.3386 25.5301 53.1573 25.5834V29.9514C53.4346 30.0261 53.6799 30.0741 53.8932 30.0954C54.1173 30.1167 54.3146 30.1274 54.4852 30.1274C55.0186 30.1274 55.4506 29.9461 55.7813 29.5834C56.1226 29.2207 56.2933 28.6021 56.2933 27.7274ZM70.5753 31.5674C70.5859 31.6421 70.5913 31.7061 70.5913 31.7594C70.5913 31.8021 70.5326 31.8447 70.4153 31.8874C70.0206 32.0047 69.6259 32.0794 69.2313 32.1114C68.8366 32.1434 68.5006 32.1594 68.2233 32.1594C67.3059 32.1594 66.6499 31.9674 66.2553 31.5834C65.8606 31.1887 65.6633 30.6127 65.6633 29.8554V25.2954H64.5433C64.4259 25.2954 64.3513 25.2687 64.3193 25.2154C64.2873 25.1514 64.2713 25.0767 64.2713 24.9914V24.1274C64.2713 24.0207 64.2819 23.9514 64.3033 23.9194C64.3353 23.8767 64.4099 23.8394 64.5273 23.8074L65.7113 23.5354L65.8233 22.0314C65.8339 21.9034 65.8659 21.8127 65.9193 21.7594C65.9833 21.7061 66.0739 21.6634 66.1913 21.6314L67.6633 21.1514C67.7593 21.1301 67.8339 21.1407 67.8873 21.1834C67.9513 21.2261 67.9833 21.3114 67.9833 21.4394V23.5834H69.7433C69.8606 23.5834 69.9299 23.6101 69.9513 23.6634C69.9833 23.7061 69.9993 23.7701 69.9993 23.8554V24.9914C69.9993 25.0981 69.9886 25.1781 69.9673 25.2314C69.9459 25.2741 69.8713 25.2954 69.7433 25.2954H67.9833V29.3594C67.9833 29.6687 68.0579 29.8821 68.2073 29.9994C68.3673 30.1167 68.6019 30.1754 68.9113 30.1754C68.9859 30.1754 69.0766 30.1701 69.1833 30.1594C69.2899 30.1487 69.3966 30.1381 69.5033 30.1274C69.6206 30.1167 69.7326 30.1061 69.8393 30.0954C69.9459 30.0847 70.0366 30.0741 70.1113 30.0634C70.2819 30.0314 70.3726 30.0847 70.3833 30.2234L70.5753 31.5674ZM75.9176 30.2554C76.0243 30.2554 76.1736 30.2501 76.3656 30.2394C76.5683 30.2287 76.7816 30.2074 77.0056 30.1754V23.8714C77.0056 23.7541 77.0216 23.6741 77.0536 23.6314C77.0963 23.5887 77.1923 23.5674 77.3416 23.5674H78.9896C79.2136 23.5674 79.3256 23.6687 79.3256 23.8714V30.7034C79.3256 31.0661 79.251 31.3541 79.1016 31.5674C78.963 31.7807 78.707 31.9301 78.3336 32.0154C78.2056 32.0367 78.0456 32.0581 77.8536 32.0794C77.6616 32.1007 77.4536 32.1167 77.2296 32.1274C77.0163 32.1487 76.803 32.1594 76.5896 32.1594C76.3763 32.1701 76.1896 32.1754 76.0296 32.1754C75.2616 32.1754 74.6056 32.1007 74.0616 31.9514C73.5283 31.8021 73.091 31.5621 72.7496 31.2314C72.419 30.9007 72.179 30.4741 72.0296 29.9514C71.8803 29.4181 71.8056 28.7727 71.8056 28.0154V23.8714C71.8056 23.7541 71.8216 23.6741 71.8536 23.6314C71.8963 23.5887 71.9923 23.5674 72.1416 23.5674H73.8056C74.0296 23.5674 74.1416 23.6687 74.1416 23.8714V28.1594C74.1416 28.5114 74.163 28.8207 74.2056 29.0874C74.2483 29.3434 74.3336 29.5621 74.4616 29.7434C74.5896 29.9141 74.771 30.0421 75.0056 30.1274C75.2403 30.2127 75.5443 30.2554 75.9176 30.2554ZM76.6216 33.7114C76.6216 34.0101 76.515 34.2554 76.3016 34.4474C76.099 34.6501 75.8536 34.7514 75.5656 34.7514C75.267 34.7514 75.011 34.6501 74.7976 34.4474C74.595 34.2554 74.4936 34.0101 74.4936 33.7114C74.4936 33.4234 74.595 33.1727 74.7976 32.9594C75.011 32.7567 75.267 32.6554 75.5656 32.6554C75.8536 32.6554 76.099 32.7567 76.3016 32.9594C76.515 33.1727 76.6216 33.4234 76.6216 33.7114ZM85.2874 30.0794C85.6287 30.0794 85.9594 30.0421 86.2794 29.9674C86.61 29.8821 86.8927 29.7967 87.1274 29.7114C87.266 29.6581 87.3567 29.6421 87.3994 29.6634C87.4527 29.6741 87.5007 29.7381 87.5434 29.8554L87.9914 31.0554C88.0447 31.1621 88.066 31.2474 88.0554 31.3114C88.0554 31.3754 87.9967 31.4394 87.8794 31.5034C87.41 31.7594 86.9087 31.9301 86.3754 32.0154C85.842 32.1114 85.3567 32.1594 84.9194 32.1594C83.6607 32.1594 82.706 31.7967 82.0554 31.0714C81.4047 30.3461 81.0794 29.2581 81.0794 27.8074C81.0794 27.1247 81.17 26.5114 81.3514 25.9674C81.5434 25.4127 81.81 24.9434 82.1514 24.5594C82.4927 24.1754 82.9087 23.8821 83.3994 23.6794C83.9007 23.4767 84.4554 23.3754 85.0634 23.3754C85.5114 23.3754 85.954 23.4234 86.3914 23.5194C86.8287 23.6047 87.2287 23.7381 87.5914 23.9194C87.73 23.9834 87.8047 24.0421 87.8154 24.0954C87.8367 24.1487 87.8207 24.2394 87.7674 24.3674L87.3194 25.5994C87.266 25.7167 87.2074 25.7807 87.1434 25.7914C87.0794 25.8021 86.9727 25.7861 86.8234 25.7434C86.546 25.6581 86.274 25.5887 86.0074 25.5354C85.7407 25.4821 85.4847 25.4554 85.2394 25.4554C84.9194 25.4554 84.6474 25.5194 84.4234 25.6474C84.21 25.7754 84.034 25.9461 83.8954 26.1594C83.7567 26.3727 83.6554 26.6234 83.5914 26.9114C83.5274 27.1887 83.4954 27.4874 83.4954 27.8074C83.4954 28.1381 83.522 28.4421 83.5754 28.7194C83.6287 28.9967 83.7247 29.2367 83.8634 29.4394C84.002 29.6421 84.1834 29.8021 84.4074 29.9194C84.642 30.0261 84.9354 30.0794 85.2874 30.0794Z" fill="white"/>
</g>
</g>
</g>
<defs>
<filter id="filter0_d_5839_17540" x="0" y="0.983398" width="116" height="50" filterUnits="userSpaceOnUse" color-interpolation-filters="sRGB">
<feFlood flood-opacity="0" result="BackgroundImageFix"/>
<feColorMatrix in="SourceAlpha" type="matrix" values="0 0 0 0 0 0 0 0 0 0 0 0 0 0 0 0 0 0 127 0" result="hardAlpha"/>
<feOffset dy="2"/>
<feComposite in2="hardAlpha" operator="out"/>
<feColorMatrix type="matrix" values="0 0 0 0 0.0121568 0 0 0 0 0.595686 0 0 0 0 0.333098 0 0 0 1 0"/>
<feBlend mode="normal" in2="BackgroundImageFix" result="effect1_dropShadow_5839_17540"/>
<feBlend mode="normal" in="SourceGraphic" in2="effect1_dropShadow_5839_17540" result="shape"/>
</filter>
<filter id="filter1_d_5839_17540" x="-2" y="-0.0166016" width="120" height="52" filterUnits="userSpaceOnUse" color-interpolation-filters="sRGB">
<feFlood flood-opacity="0" result="BackgroundImageFix"/>
<feColorMatrix in="SourceAlpha" type="matrix" values="0 0 0 0 0 0 0 0 0 0 0 0 0 0 0 0 0 0 127 0" result="hardAlpha"/>
<feOffset dy="1"/>
<feGaussianBlur stdDeviation="1"/>
<feColorMatrix type="matrix" values="0 0 0 0 0.0627451 0 0 0 0 0.0941176 0 0 0 0 0.156863 0 0 0 0.05 0"/>
<feBlend mode="normal" in2="BackgroundImageFix" result="effect1_dropShadow_5839_17540"/>
<feBlend mode="normal" in="SourceGraphic" in2="effect1_dropShadow_5839_17540" result="shape"/>
</filter>
<clipPath id="clip0_5839_17540">
<rect y="0.983398" width="116" height="48" rx="16" fill="white"/>
</clipPath>
</defs>
</svg>
