<svg width="170" height="51" viewBox="0 0 170 51" fill="none" xmlns="http://www.w3.org/2000/svg">
<g filter="url(#filter0_d_5851_14450)">
<g clip-path="url(#clip0_5851_14450)">
<g filter="url(#filter1_d_5851_14450)">
<rect y="0.5" width="170" height="48" rx="16" fill="white"/>
<rect x="0.5" y="1" width="169" height="47" rx="15.5" stroke="#B5B5B5"/>
<path d="M71.508 22.06C71.508 22.2733 71.4013 22.38 71.188 22.38H68.292V31.164C68.292 31.3027 68.2653 31.3933 68.212 31.436C68.1693 31.4787 68.068 31.5 67.908 31.5H66.196C66.068 31.5 65.972 31.4787 65.908 31.436C65.8547 31.3827 65.828 31.292 65.828 31.164V22.38H62.996C62.7933 22.38 62.692 22.2733 62.692 22.06V20.636C62.692 20.4973 62.7133 20.4067 62.756 20.364C62.7987 20.3213 62.8787 20.3 62.996 20.3H71.188C71.316 20.3 71.4013 20.3213 71.444 20.364C71.4867 20.4067 71.508 20.4973 71.508 20.636V22.06ZM80.4075 31.212C80.4075 31.34 80.3862 31.42 80.3435 31.452C80.3008 31.484 80.2048 31.5 80.0555 31.5H78.3915C78.2742 31.5 78.1888 31.484 78.1355 31.452C78.0822 31.4093 78.0555 31.3293 78.0555 31.212V26.732C78.0555 26.4547 78.0288 26.204 77.9755 25.98C77.9328 25.7453 77.8475 25.548 77.7195 25.388C77.6022 25.228 77.4422 25.1053 77.2395 25.02C77.0368 24.924 76.7808 24.876 76.4715 24.876C76.2582 24.876 76.0182 24.892 75.7515 24.924C75.4848 24.956 75.2502 25.0093 75.0475 25.084V31.212C75.0475 31.34 75.0262 31.42 74.9835 31.452C74.9515 31.484 74.8608 31.5 74.7115 31.5H73.0635C72.9462 31.5 72.8608 31.484 72.8075 31.452C72.7542 31.4093 72.7275 31.3293 72.7275 31.212V20.108C72.7275 19.9053 72.8342 19.804 73.0475 19.804H74.7115C74.8608 19.804 74.9515 19.8253 74.9835 19.868C75.0262 19.9107 75.0475 19.9907 75.0475 20.108V23.132C75.3248 23.0467 75.6395 22.9827 75.9915 22.94C76.3542 22.8973 76.6635 22.876 76.9195 22.876C78.0822 22.876 78.9515 23.1853 79.5275 23.804C80.1142 24.4227 80.4075 25.2973 80.4075 26.428V31.212ZM90.2375 27.26C90.2375 28.668 89.9015 29.756 89.2295 30.524C88.5575 31.292 87.5335 31.676 86.1575 31.676C84.7708 31.676 83.7575 31.292 83.1175 30.524C82.4775 29.756 82.1575 28.6787 82.1575 27.292C82.1575 26.6093 82.2482 25.996 82.4295 25.452C82.6215 24.8973 82.8882 24.4333 83.2295 24.06C83.5815 23.6867 84.0028 23.3987 84.4935 23.196C84.9948 22.9933 85.5602 22.892 86.1895 22.892C87.5335 22.892 88.5415 23.2813 89.2135 24.06C89.8962 24.828 90.2375 25.8947 90.2375 27.26ZM87.8215 27.308C87.8215 26.9453 87.7948 26.6147 87.7415 26.316C87.6882 26.0173 87.5975 25.7613 87.4695 25.548C87.3415 25.3347 87.1762 25.1693 86.9735 25.052C86.7708 24.924 86.5202 24.86 86.2215 24.86C85.6562 24.86 85.2348 25.0787 84.9575 25.516C84.6908 25.9427 84.5575 26.524 84.5575 27.26C84.5575 28.06 84.6802 28.668 84.9255 29.084C85.1815 29.5 85.5975 29.708 86.1735 29.708C86.4722 29.708 86.7228 29.6493 86.9255 29.532C87.1388 29.404 87.3095 29.2333 87.4375 29.02C87.5762 28.796 87.6722 28.54 87.7255 28.252C87.7895 27.964 87.8215 27.6493 87.8215 27.308ZM99.1291 30.46C99.1291 30.5987 99.1078 30.716 99.0651 30.812C99.0331 30.908 98.9425 30.9987 98.7931 31.084C98.5478 31.2013 98.2811 31.2973 97.9931 31.372C97.7158 31.4467 97.4278 31.5053 97.1291 31.548C96.8411 31.5907 96.5478 31.6227 96.2491 31.644C95.9505 31.6653 95.6678 31.676 95.4011 31.676C94.6758 31.676 94.0731 31.6067 93.5931 31.468C93.1238 31.3293 92.7451 31.1427 92.4571 30.908C92.1691 30.6627 91.9665 30.38 91.8491 30.06C91.7318 29.7293 91.6731 29.3773 91.6731 29.004C91.6731 28.588 91.7425 28.2093 91.8811 27.868C92.0198 27.516 92.2278 27.212 92.5051 26.956C92.7825 26.7 93.1291 26.5027 93.5451 26.364C93.9718 26.2147 94.4731 26.14 95.0491 26.14H96.8091V25.884C96.8091 25.7347 96.7931 25.5907 96.7611 25.452C96.7291 25.3133 96.6598 25.196 96.5531 25.1C96.4571 24.9933 96.3185 24.908 96.1371 24.844C95.9558 24.78 95.7158 24.748 95.4171 24.748C95.2571 24.748 95.0758 24.7587 94.8731 24.78C94.6705 24.7907 94.4678 24.812 94.2651 24.844C94.0625 24.8653 93.8651 24.8973 93.6731 24.94C93.4811 24.972 93.3105 25.0093 93.1611 25.052C93.0225 25.084 92.9265 25.084 92.8731 25.052C92.8198 25.02 92.7825 24.9507 92.7611 24.844L92.5051 23.724C92.4731 23.6067 92.4678 23.5267 92.4891 23.484C92.5211 23.4307 92.5798 23.388 92.6651 23.356C93.1451 23.1853 93.6465 23.0627 94.1691 22.988C94.7025 22.9133 95.2305 22.876 95.7531 22.876C96.9158 22.876 97.7691 23.1267 98.3131 23.628C98.8571 24.1187 99.1291 24.8493 99.1291 25.82V30.46ZM96.7931 27.692H95.5291C95.3798 27.692 95.2198 27.7027 95.0491 27.724C94.8785 27.7453 94.7185 27.7987 94.5691 27.884C94.4305 27.9587 94.3131 28.0707 94.2171 28.22C94.1211 28.3693 94.0731 28.572 94.0731 28.828C94.0731 29.2013 94.1958 29.4627 94.4411 29.612C94.6971 29.7613 95.0385 29.836 95.4651 29.836C95.5291 29.836 95.6145 29.836 95.7211 29.836C95.8278 29.8253 95.9398 29.8147 96.0571 29.804C96.1851 29.7827 96.3131 29.7613 96.4411 29.74C96.5691 29.708 96.6865 29.6707 96.7931 29.628V27.692ZM96.6171 19.228C96.6811 19.1747 96.7398 19.1373 96.7931 19.116C96.8465 19.0947 96.9158 19.1267 97.0011 19.212L98.1051 20.476C98.1691 20.54 98.1958 20.604 98.1851 20.668C98.1745 20.7213 98.1371 20.7587 98.0731 20.78L94.9851 22.364C94.8785 22.4173 94.7985 22.4387 94.7451 22.428C94.7025 22.4067 94.6545 22.3693 94.6011 22.316L93.9931 21.58C93.9398 21.516 93.9078 21.4627 93.8971 21.42C93.8971 21.3773 93.9398 21.3187 94.0251 21.244L96.6171 19.228ZM106.716 31.084C106.727 31.1587 106.732 31.2227 106.732 31.276C106.732 31.3187 106.673 31.3613 106.556 31.404C106.161 31.5213 105.767 31.596 105.372 31.628C104.977 31.66 104.641 31.676 104.364 31.676C103.447 31.676 102.791 31.484 102.396 31.1C102.001 30.7053 101.804 30.1293 101.804 29.372V24.812H100.684C100.567 24.812 100.492 24.7853 100.46 24.732C100.428 24.668 100.412 24.5933 100.412 24.508V23.644C100.412 23.5373 100.423 23.468 100.444 23.436C100.476 23.3933 100.551 23.356 100.668 23.324L101.852 23.052L101.964 21.548C101.975 21.42 102.007 21.3293 102.06 21.276C102.124 21.2227 102.215 21.18 102.332 21.148L103.804 20.668C103.9 20.6467 103.975 20.6573 104.028 20.7C104.092 20.7427 104.124 20.828 104.124 20.956V23.1H105.884C106.001 23.1 106.071 23.1267 106.092 23.18C106.124 23.2227 106.14 23.2867 106.14 23.372V24.508C106.14 24.6147 106.129 24.6947 106.108 24.748C106.087 24.7907 106.012 24.812 105.884 24.812H104.124V28.876C104.124 29.1853 104.199 29.3987 104.348 29.516C104.508 29.6333 104.743 29.692 105.052 29.692C105.127 29.692 105.217 29.6867 105.324 29.676C105.431 29.6653 105.537 29.6547 105.644 29.644C105.761 29.6333 105.873 29.6227 105.98 29.612C106.087 29.6013 106.177 29.5907 106.252 29.58C106.423 29.548 106.513 29.6013 106.524 29.74L106.716 31.084Z" fill="#B5B5B5"/>
</g>
</g>
</g>
<defs>
<filter id="filter0_d_5851_14450" x="0" y="0.5" width="170" height="50" filterUnits="userSpaceOnUse" color-interpolation-filters="sRGB">
<feFlood flood-opacity="0" result="BackgroundImageFix"/>
<feColorMatrix in="SourceAlpha" type="matrix" values="0 0 0 0 0 0 0 0 0 0 0 0 0 0 0 0 0 0 127 0" result="hardAlpha"/>
<feOffset dy="2"/>
<feComposite in2="hardAlpha" operator="out"/>
<feColorMatrix type="matrix" values="0 0 0 0 0.709804 0 0 0 0 0.709804 0 0 0 0 0.709804 0 0 0 1 0"/>
<feBlend mode="normal" in2="BackgroundImageFix" result="effect1_dropShadow_5851_14450"/>
<feBlend mode="normal" in="SourceGraphic" in2="effect1_dropShadow_5851_14450" result="shape"/>
</filter>
<filter id="filter1_d_5851_14450" x="-2" y="-0.5" width="174" height="52" filterUnits="userSpaceOnUse" color-interpolation-filters="sRGB">
<feFlood flood-opacity="0" result="BackgroundImageFix"/>
<feColorMatrix in="SourceAlpha" type="matrix" values="0 0 0 0 0 0 0 0 0 0 0 0 0 0 0 0 0 0 127 0" result="hardAlpha"/>
<feOffset dy="1"/>
<feGaussianBlur stdDeviation="1"/>
<feColorMatrix type="matrix" values="0 0 0 0 0.709804 0 0 0 0 0.709804 0 0 0 0 0.709804 0 0 0 1 0"/>
<feBlend mode="normal" in2="BackgroundImageFix" result="effect1_dropShadow_5851_14450"/>
<feBlend mode="normal" in="SourceGraphic" in2="effect1_dropShadow_5851_14450" result="shape"/>
</filter>
<clipPath id="clip0_5851_14450">
<rect y="0.5" width="170" height="48" rx="16" fill="white"/>
</clipPath>
</defs>
</svg>
