<svg width="18" height="22" viewBox="0 0 18 22" fill="none" xmlns="http://www.w3.org/2000/svg">
<path d="M7.17306 1.73489C6.23348 2.90932 3.8891 5.84887 2.66212 7.50889C1.43515 9.16892 1.10849 11.789 1.14645 13.9686C1.21862 18.1186 5.4908 21.9873 10.8901 21.0056C14.4074 20.3662 16.4711 17.6567 17.094 14.9783C17.666 12.5178 17.4574 10.6282 16.0145 8.84413C14.0297 6.39018 11.3231 3.03404 10.2766 1.77098C9.23005 0.507918 8.11264 0.560464 7.17306 1.73489Z" fill="url(#paint0_linear_5046_11327)"/>
<path d="M0.611538 5.35908C0.628577 6.12616 0.936026 11.7663 1.13451 13.9303C1.39954 16.8192 7.28181 18.1183 9.74644 14.9999C10.8773 13.5691 11.9371 9.09645 6.90275 6.36376C5.55077 5.62988 3.80803 4.70403 3.06418 4.32092C1.61607 3.57506 0.594499 4.59201 0.611538 5.35908Z" fill="url(#paint1_radial_5046_11327)"/>
<path d="M9.18779 10.0325C9.04691 10.7866 8.65354 12.7971 8.55684 14.968C8.43746 17.65 10.0975 18.6605 12.2782 18.3773C14.457 18.0942 16.5209 15.3149 14.6405 12.4989C13.598 10.9377 13.0712 10.1786 12.568 9.51013C11.3605 7.9064 9.48399 8.44771 9.18779 10.0325Z" fill="#FFC800"/>
<defs>
<linearGradient id="paint0_linear_5046_11327" x1="11.0876" y1="1.7681" x2="9.00861" y2="9.16935" gradientUnits="userSpaceOnUse">
<stop stop-color="#FFC600"/>
<stop offset="0.5" stop-color="#F69B0A"/>
<stop offset="1" stop-color="#ED7014"/>
</linearGradient>
<radialGradient id="paint1_radial_5046_11327" cx="0" cy="0" r="1" gradientUnits="userSpaceOnUse" gradientTransform="translate(3.5391 4.73838) scale(7.12622)">
<stop stop-color="#FDC700"/>
<stop offset="0.5" stop-color="#F59C0A"/>
<stop offset="1" stop-color="#ED7014"/>
</radialGradient>
</defs>
</svg>
