<svg width="31" height="34" viewBox="0 0 31 34" fill="none" xmlns="http://www.w3.org/2000/svg">
<path d="M9.90737 3.02679C10.4389 1.85002 12.11 1.85001 12.6415 3.02679L14.549 7.25025C14.6993 7.58303 14.9658 7.84957 15.2986 7.99987L19.522 9.90737C20.6988 10.4389 20.6988 12.11 19.522 12.6415L15.2986 14.549C14.9658 14.6993 14.6993 14.9658 14.549 15.2986L12.6415 19.522C12.11 20.6988 10.4389 20.6988 9.90738 19.522L7.99987 15.2986C7.84957 14.9658 7.58303 14.6993 7.25025 14.549L3.02679 12.6415C1.85002 12.11 1.85001 10.4389 3.02679 9.90738L7.25025 7.99987C7.58303 7.84957 7.84957 7.58303 7.99987 7.25025L9.90737 3.02679Z" fill="#F37142"/>
<path d="M18.3548 18.9524C18.7091 18.1679 19.8231 18.1679 20.1775 18.9524L21.3148 21.4706C21.415 21.6925 21.5927 21.8702 21.8145 21.9704L24.3327 23.1077C25.1172 23.462 25.1172 24.5761 24.3327 24.9304L21.8145 26.0677C21.5927 26.1679 21.415 26.3456 21.3148 26.5675L20.1775 29.0857C19.8231 29.8702 18.7091 29.8702 18.3548 29.0857L17.2174 26.5675C17.1172 26.3456 16.9395 26.1679 16.7177 26.0677L14.1995 24.9304C13.415 24.5761 13.415 23.462 14.1995 23.1077L16.7177 21.9704C16.9395 21.8702 17.1172 21.6925 17.2174 21.4706L18.3548 18.9524Z" fill="#F37142"/>
<path d="M27.0014 12.1232C27.1785 11.7309 27.7355 11.7309 27.9127 12.1232L28.6381 13.7292C28.6882 13.8402 28.777 13.929 28.888 13.9791L30.494 14.7045C30.8863 14.8816 30.8863 15.4387 30.494 15.6158L28.888 16.3412C28.777 16.3913 28.6882 16.4801 28.6381 16.5911L27.9127 18.1971C27.7355 18.5894 27.1785 18.5894 27.0014 18.1971L26.276 16.5911C26.2259 16.4801 26.137 16.3913 26.0261 16.3412L24.4201 15.6158C24.0278 15.4387 24.0278 14.8816 24.4201 14.7045L26.0261 13.9791C26.137 13.929 26.2259 13.8402 26.276 13.7292L27.0014 12.1232Z" fill="#F37142"/>
</svg>
