<svg width="26" height="24" viewBox="0 0 26 24" fill="none" xmlns="http://www.w3.org/2000/svg">
<g clip-path="url(#clip0_5185_2808)">
<path d="M14.5331 0.853666L17.2165 6.28993C17.3274 6.51289 17.4908 6.70561 17.6926 6.85153C17.8944 6.99746 18.1286 7.09225 18.3751 7.12776L24.3751 8.00028C24.6589 8.04171 24.9254 8.16168 25.1446 8.34661C25.3638 8.53154 25.5269 8.77408 25.6156 9.04683C25.7042 9.31958 25.7148 9.61167 25.6462 9.89013C25.5776 10.1686 25.4325 10.4223 25.2273 10.6227L20.885 14.8573C20.7063 15.0311 20.5728 15.246 20.4958 15.4831C20.4189 15.7202 20.4008 15.9725 20.4433 16.2181L21.4678 22.1942C21.5166 22.477 21.4852 22.7678 21.3771 23.0337C21.2691 23.2996 21.0888 23.5299 20.8566 23.6986C20.6244 23.8673 20.3496 23.9676 20.0633 23.9881C19.777 24.0086 19.4907 23.9486 19.2368 23.8148L13.876 20.9985C13.6547 20.8815 13.4082 20.8204 13.1578 20.8204C12.9075 20.8204 12.661 20.8815 12.4397 20.9985L7.07407 23.8196C6.8201 23.9532 6.53379 24.0131 6.24753 23.9926C5.96127 23.972 5.68648 23.8717 5.45424 23.7031C5.222 23.5345 5.04155 23.3043 4.93333 23.0385C4.82512 22.7726 4.79344 22.4818 4.84187 22.199L5.8676 16.2229C5.90961 15.9772 5.89126 15.7249 5.81411 15.4878C5.73696 15.2508 5.60334 15.036 5.42476 14.862L1.08364 10.6299C0.877976 10.4297 0.732459 10.176 0.663576 9.89737C0.594693 9.61878 0.6052 9.32646 0.693893 9.05353C0.782586 8.7806 0.945921 8.53796 1.16542 8.35308C1.38491 8.1682 1.65179 8.04848 1.93582 8.00747L7.93583 7.13493C8.1821 7.09924 8.41605 7.00438 8.61762 6.85846C8.8192 6.71254 8.9824 6.51992 9.09322 6.29711L11.7754 0.853666C11.9025 0.596514 12.099 0.380022 12.3426 0.228653C12.5863 0.0772849 12.8674 -0.00292969 13.1543 -0.00292969C13.4411 -0.00292969 13.7222 0.0772849 13.9659 0.228653C14.2095 0.380022 14.406 0.596514 14.5331 0.853666Z" fill="#CCCCCC"/>
</g>
<defs>
<clipPath id="clip0_5185_2808">
<rect width="25.0772" height="24" fill="white" transform="translate(0.615723)"/>
</clipPath>
</defs>
</svg>
