<svg width="26" height="24" viewBox="0 0 26 24" fill="none" xmlns="http://www.w3.org/2000/svg">
<g clip-path="url(#clip0_5185_2800)">
<path d="M14.2244 0.853666L16.9078 6.28993C17.0187 6.51289 17.1821 6.70561 17.3839 6.85153C17.5857 6.99746 17.8199 7.09225 18.0664 7.12776L24.0664 8.00028C24.3501 8.04171 24.6167 8.16168 24.8359 8.34661C25.0551 8.53154 25.2182 8.77408 25.3069 9.04683C25.3955 9.31958 25.4061 9.61167 25.3375 9.89013C25.2689 10.1686 25.1238 10.4223 24.9185 10.6227L20.5762 14.8573C20.3976 15.0311 20.2641 15.246 20.1871 15.4831C20.1101 15.7202 20.0921 15.9725 20.1346 16.2181L21.1591 22.1942C21.2079 22.477 21.1765 22.7678 21.0684 23.0337C20.9604 23.2996 20.78 23.5299 20.5478 23.6986C20.3156 23.8673 20.0408 23.9676 19.7546 23.9881C19.4683 24.0086 19.182 23.9486 18.9281 23.8148L13.5673 20.9985C13.346 20.8815 13.0994 20.8204 12.8491 20.8204C12.5988 20.8204 12.3523 20.8815 12.131 20.9985L6.76536 23.8196C6.51138 23.9532 6.22507 24.0131 5.93881 23.9926C5.65256 23.972 5.37777 23.8717 5.14552 23.7031C4.91328 23.5345 4.73284 23.3043 4.62462 23.0385C4.5164 22.7726 4.48472 22.4818 4.53316 22.199L5.55888 16.2229C5.60089 15.9772 5.58254 15.7249 5.50539 15.4878C5.42825 15.2508 5.29462 15.036 5.11604 14.862L0.774926 10.6299C0.569261 10.4297 0.423744 10.176 0.35486 9.89737C0.285977 9.61878 0.296484 9.32646 0.385177 9.05353C0.47387 8.7806 0.637206 8.53796 0.8567 8.35308C1.07619 8.1682 1.34307 8.04848 1.62711 8.00747L7.62711 7.13493C7.87338 7.09924 8.10733 7.00438 8.30891 6.85846C8.51048 6.71254 8.67368 6.51992 8.78451 6.29711L11.4667 0.853666C11.5938 0.596514 11.7903 0.380022 12.0339 0.228653C12.2776 0.0772849 12.5587 -0.00292969 12.8455 -0.00292969C13.1324 -0.00292969 13.4135 0.0772849 13.6572 0.228653C13.9008 0.380022 14.0973 0.596514 14.2244 0.853666Z" fill="#FDB022"/>
</g>
<defs>
<clipPath id="clip0_5185_2800">
<rect width="25.0772" height="24" fill="white" transform="translate(0.307007)"/>
</clipPath>
</defs>
</svg>
