<svg width="17" height="16" viewBox="0 0 17 16" fill="none" xmlns="http://www.w3.org/2000/svg">
<path d="M2 6.66685V9.33352C2 10.6669 2.66667 11.3335 4 11.3335H4.95333C5.2 11.3335 5.44667 11.4069 5.66 11.5335L7.60667 12.7535C9.28667 13.8069 10.6667 13.0402 10.6667 11.0602V4.94018C10.6667 2.95352 9.28667 2.19352 7.60667 3.24685L5.66 4.46685C5.44667 4.59352 5.2 4.66685 4.95333 4.66685H4C2.66667 4.66685 2 5.33352 2 6.66685Z" stroke="#0BA5EC" stroke-width="1.2"/>
<path d="M12.6667 5.33301C13.8534 6.91301 13.8534 9.08634 12.6667 10.6663" stroke="#0BA5EC" stroke-width="1.2" stroke-linecap="round" stroke-linejoin="round"/>
<path d="M13.8867 3.66699C15.8134 6.23366 15.8134 9.76699 13.8867 12.3337" stroke="#0BA5EC" stroke-width="1.2" stroke-linecap="round" stroke-linejoin="round"/>
</svg>
