<svg width="53" height="40" viewBox="0 0 53 40" fill="none" xmlns="http://www.w3.org/2000/svg">
<g clip-path="url(#clip0_5135_158)">
<path d="M46.8805 10.4037L46.7505 10.9919L46.5794 11.7822L42.8073 29.0515L42.6425 29.805L42.6234 29.8961L15.596 34.9757L15.5201 34.87L15.0579 34.1987L5.03926 19.599L4.56336 18.9076L3.82903 17.8403L3.59732 17.5015L4.25387 17.9095L5.45621 18.662L6.0939 19.0574L18.2511 26.629L23.5447 10.425L23.9509 9.1854L24.1838 8.4612L24.199 8.41946L24.2822 8.16082L24.4908 8.42942L24.9941 9.07359L28.3114 13.3136L31.8466 17.8366L33.9892 20.5769L36.1007 23.2744L45.7936 11.7031L46.3422 11.0459L46.8805 10.4037Z" fill="#FDBE11"/>
<g style="mix-blend-mode:multiply" opacity="0.67">
<path d="M42.8085 29.0441L42.6411 29.8013L42.622 29.8924L15.6073 34.9695L15.5341 34.8602L15.0782 34.1877C15.2226 34.0868 15.387 34.0172 15.5604 33.9836L42.1582 28.9848C42.3827 28.9426 42.6142 28.9619 42.8276 29.0405L42.8085 29.0441Z" fill="#F99B1C"/>
</g>
<g style="mix-blend-mode:soft-light" opacity="0.53">
<path d="M28.311 13.3129L26.726 21.8666L24.7997 32.2504L24.6341 33.1401L24.6111 33.2806L19.1153 34.3134L19.1415 34.1724L19.307 33.2827L23.5443 10.4242L23.9505 9.18468L24.1834 8.46048L24.1987 8.41874L24.2818 8.1601L24.4905 8.4287L24.9937 9.07287L28.311 13.3129Z" fill="white"/>
</g>
<g style="mix-blend-mode:soft-light" opacity="0.53">
<path d="M33.9889 20.5768L32.0777 30.8832L31.9153 31.7724L31.8891 31.9134L29.1427 32.4295L29.169 32.2885L29.3313 31.3994L31.8463 17.8366L33.9889 20.5768Z" fill="white"/>
</g>
<path d="M43.9323 31.0784C44.0893 31.914 43.6155 32.7061 42.8708 32.8461L16.2635 37.8467C15.522 37.986 14.7929 37.4199 14.6359 36.5843C14.5532 36.2426 14.5965 35.8824 14.7582 35.5677C14.9199 35.2531 15.1895 35.0046 15.5189 34.8664C15.5773 34.8504 15.6369 34.8392 15.6971 34.8329L42.3172 29.8299C42.4251 29.8106 42.5352 29.8063 42.6442 29.817C42.9679 29.8647 43.2672 30.0126 43.4987 30.2393C43.7303 30.4661 43.8821 30.7599 43.9323 31.0784Z" fill="#FFBB33"/>
<g style="mix-blend-mode:soft-light" opacity="0.51">
<path d="M31.0622 31.9322L31.036 32.0732L30.4599 35.1786L24.9672 36.2109L25.5433 33.1055L25.5695 32.9645L31.0622 31.9322Z" fill="white"/>
</g>
<g style="mix-blend-mode:soft-light" opacity="0.51">
<path d="M38.3403 30.5645L38.3141 30.7056L37.738 33.811L34.9916 34.3271L35.5677 31.2217L35.5939 31.0807L38.3403 30.5645Z" fill="white"/>
</g>
<path d="M26.4216 6.61155C26.4316 6.66475 26.441 6.71482 26.4504 6.7649C26.5051 7.25255 26.3914 7.74514 26.1275 8.16328C25.8636 8.58142 25.4649 8.90076 24.9958 9.06986C24.8836 9.11043 24.7683 9.14185 24.651 9.16381C24.551 9.18324 24.4496 9.19471 24.3477 9.19812C24.2147 9.20752 24.0811 9.2022 23.9494 9.18226C23.5145 9.12707 23.1069 8.94575 22.7783 8.66136C22.4498 8.37696 22.215 8.00232 22.104 7.58501C22.0946 7.53494 22.0852 7.48486 22.0752 7.43166C21.9776 6.91469 22.0736 6.3793 22.3455 5.92441C22.6173 5.46951 23.0465 5.12585 23.5539 4.95692C23.6508 4.92569 23.7495 4.90064 23.8496 4.88193C24.4254 4.77626 25.019 4.8988 25.5008 5.2228C25.9826 5.54681 26.3136 6.046 26.4216 6.61155Z" fill="#FDBE11"/>
<path d="M26.4507 6.76409C26.5054 7.25174 26.3917 7.74433 26.1278 8.16247C25.8639 8.58061 25.4652 8.89996 24.9961 9.06905C24.8839 9.10962 24.7686 9.14104 24.6513 9.163C24.5513 9.18243 24.4498 9.19391 24.348 9.19731C24.215 9.20671 24.0814 9.20139 23.9497 9.18146C23.6917 9.18054 23.437 9.12737 23.2014 9.02523C22.9658 8.9231 22.7544 8.77419 22.5803 8.58778C22.4062 8.40137 22.2731 8.18145 22.1894 7.94169C22.1057 7.70194 22.073 7.44748 22.0936 7.19416C22.275 7.58596 22.5706 7.91532 22.9431 8.14059C23.3156 8.36587 23.7483 8.47694 24.1864 8.45979C24.194 8.46003 24.2016 8.4586 24.2086 8.4556C24.3041 8.45446 24.3994 8.44523 24.4934 8.42801L24.5125 8.42442C24.9985 8.33192 25.4402 8.08253 25.7675 7.71578C26.0949 7.34904 26.2892 6.88594 26.3197 6.3999C26.3728 6.51775 26.4166 6.6395 26.4507 6.76409Z" fill="#F99B1C"/>
<g style="mix-blend-mode:soft-light">
<path d="M24.9399 6.21205C24.946 6.23572 24.9505 6.25976 24.9534 6.28403C24.9882 6.55048 24.9179 6.82053 24.757 7.0387C24.5961 7.25687 24.3567 7.40657 24.0882 7.45703C23.8197 7.5075 23.5424 7.4549 23.3132 7.31003C23.0841 7.16517 22.9206 6.93906 22.8562 6.67817C22.8502 6.6545 22.8456 6.63045 22.8427 6.60619C22.8084 6.46705 22.8033 6.32232 22.8278 6.18083C22.8522 6.03935 22.9057 5.90408 22.9849 5.7833C23.0641 5.66252 23.1674 5.55876 23.2885 5.47836C23.4096 5.39797 23.5459 5.34262 23.6891 5.31571C23.8323 5.28879 23.9794 5.29088 24.1214 5.32183C24.2634 5.35279 24.3973 5.41197 24.515 5.49575C24.6326 5.57953 24.7315 5.68615 24.8057 5.8091C24.8798 5.93206 24.9277 6.06876 24.9462 6.21085L24.9399 6.21205Z" fill="white"/>
</g>
<path d="M48.5937 9.19665C48.6031 9.24672 48.6125 9.2968 48.6219 9.34687C48.6856 9.89503 48.5352 10.4478 48.2011 10.8932C47.867 11.3387 47.3742 11.6434 46.8225 11.7458C46.7449 11.7653 46.6663 11.7801 46.587 11.79C46.322 11.8124 46.0554 11.7855 45.8011 11.7109C45.4325 11.6089 45.098 11.4136 44.8307 11.1444C44.5634 10.8752 44.3726 10.5415 44.2772 10.1764C44.2678 10.1263 44.2584 10.0762 44.249 10.0261C44.1836 9.74005 44.1776 9.44355 44.2314 9.15441C44.2852 8.86527 44.3976 8.58942 44.5619 8.3434C44.7262 8.09737 44.9391 7.88623 45.1877 7.72259C45.4364 7.55896 45.7157 7.44621 46.009 7.39109C46.3023 7.33597 46.6035 7.33962 46.8945 7.40182C47.1856 7.46401 47.4606 7.58347 47.7031 7.75305C47.9455 7.92263 48.1504 8.13884 48.3055 8.38873C48.4605 8.63862 48.5626 8.91706 48.6056 9.20737L48.5937 9.19665Z" fill="#FDBE11"/>
<path d="M48.6158 9.34835C48.6795 9.89652 48.5291 10.4493 48.195 10.8947C47.8609 11.3402 47.3681 11.6449 46.8164 11.7473C46.7388 11.7668 46.6602 11.7816 46.5809 11.7915C46.3159 11.8138 46.0494 11.787 45.7951 11.7124C45.3396 11.6422 44.9289 11.4054 44.6446 11.0493C44.3603 10.6932 44.2233 10.2439 44.261 9.79094C44.4419 10.1813 44.736 10.5098 45.1065 10.7352C45.4771 10.9607 45.9076 11.0731 46.3442 11.0584C46.4526 11.0557 46.5607 11.044 46.6672 11.0236L46.7404 11.0098C47.2111 10.9058 47.6353 10.6533 47.9485 10.2909C48.2616 9.92844 48.4465 9.47592 48.475 9.0022C48.532 9.11333 48.5791 9.22914 48.6158 9.34835Z" fill="#F99B1C"/>
<g style="mix-blend-mode:soft-light">
<path d="M47.1083 8.79578C47.1146 8.82049 47.1193 8.84558 47.1224 8.87089C47.1572 9.13733 47.0869 9.40739 46.926 9.62556C46.7651 9.84373 46.5258 9.99343 46.2572 10.0439C45.9887 10.0944 45.7114 10.0418 45.4823 9.89689C45.2531 9.75203 45.0896 9.52592 45.0253 9.26503C45.0205 9.23999 45.0158 9.21495 45.0111 9.18991C44.9762 8.92265 45.0467 8.65175 45.2081 8.43291C45.3695 8.21406 45.6096 8.06389 45.8789 8.01327C46.1482 7.96265 46.4264 8.01542 46.6563 8.16074C46.8861 8.30606 47.0501 8.53288 47.1146 8.79458L47.1083 8.79578Z" fill="white"/>
</g>
<path d="M6.7591 17.0588C6.76852 17.1089 6.77793 17.1589 6.78734 17.209C6.84662 17.7555 6.69401 18.3052 6.36002 18.7481C6.02603 19.1909 5.53528 19.4943 4.98596 19.5976C4.43663 19.7008 3.86922 19.5963 3.39723 19.3049C2.92524 19.0135 2.58348 18.5567 2.4403 18.026C2.43089 17.9759 2.42148 17.9258 2.41207 17.8758C2.3467 17.5897 2.34072 17.2932 2.39449 17.004C2.44826 16.7149 2.56067 16.439 2.725 16.193C2.88932 15.947 3.10217 15.7358 3.35082 15.5722C3.59947 15.4086 3.8788 15.2958 4.17207 15.2407C4.46535 15.1856 4.76655 15.1892 5.05763 15.2514C5.34872 15.3136 5.62371 15.4331 5.86614 15.6027C6.10858 15.7722 6.31346 15.9884 6.46854 16.2383C6.62361 16.4882 6.7257 16.7667 6.76866 17.057L6.7591 17.0588Z" fill="#FDBE11"/>
<path d="M6.78116 17.2106C6.86207 17.516 6.87448 17.8356 6.81756 18.1471C6.76063 18.4586 6.63571 18.7546 6.45146 19.0146C6.2672 19.2747 6.028 19.4926 5.75041 19.6532C5.47281 19.8138 5.16346 19.9133 4.84374 19.9449C4.52402 19.9764 4.20158 19.9393 3.89872 19.8359C3.59586 19.7326 3.31982 19.5656 3.0897 19.3465C2.85957 19.1273 2.68085 18.8613 2.56591 18.5667C2.45097 18.2722 2.40255 17.9562 2.424 17.6406C2.62803 18.083 2.9771 18.4445 3.4155 18.6674C3.85391 18.8903 4.35641 18.9617 4.8428 18.8703C5.32919 18.7789 5.77146 18.5299 6.09904 18.163C6.42662 17.7962 6.62063 17.3327 6.65012 16.8464C6.70474 16.9636 6.7486 17.0855 6.78116 17.2106Z" fill="#F99B1C"/>
<g style="mix-blend-mode:soft-light">
<path d="M5.27332 16.6581C5.27961 16.6828 5.28432 16.7079 5.28744 16.7332C5.32222 16.9996 5.25193 17.2697 5.09102 17.4879C4.93011 17.706 4.6908 17.8557 4.42229 17.9062C4.15377 17.9567 3.87644 17.9041 3.64731 17.7592C3.41817 17.6143 3.25462 17.3882 3.19029 17.1273C3.18559 17.1023 3.18088 17.0773 3.17618 17.0522C3.14127 16.785 3.21176 16.5141 3.37316 16.2952C3.53456 16.0764 3.7746 15.9262 4.04395 15.8756C4.3133 15.825 4.59147 15.8777 4.82131 16.023C5.05115 16.1684 5.21519 16.3952 5.27969 16.6569L5.27332 16.6581Z" fill="white"/>
</g>
<g style="mix-blend-mode:multiply" opacity="0.55">
<path d="M48.5939 9.19636C48.6033 9.24644 48.6127 9.29651 48.6221 9.34658C48.6858 9.89475 48.5354 10.4475 48.2013 10.893C47.8672 11.3384 47.3743 11.6431 46.8226 11.7455C46.7451 11.765 46.6665 11.7798 46.5872 11.7898L42.8057 29.0446L42.6383 29.8018C42.9642 29.8497 43.2654 29.9993 43.4976 30.2285C43.7299 30.4578 43.8809 30.7547 43.9287 31.0757C44.0858 31.9113 43.612 32.7035 42.8673 32.8434L29.2693 35.399L23.5475 4.95433C23.6443 4.9231 23.743 4.89804 23.8431 4.87933C24.4207 4.77077 25.017 4.89209 25.5012 5.21664C25.9853 5.54118 26.3177 6.04242 26.4253 6.61028C26.4353 6.66349 26.4447 6.71356 26.4541 6.76363C26.5088 7.25129 26.395 7.74387 26.1312 8.16201C25.8673 8.58015 25.4686 8.8995 24.9994 9.06859L28.3162 13.3055L31.8508 17.8254L33.9934 20.5656L36.1017 23.2637L45.7877 11.6905C45.419 11.5885 45.0845 11.3932 44.8172 11.124C44.5499 10.8548 44.3591 10.5211 44.2637 10.156C44.2543 10.1059 44.2449 10.0558 44.2355 10.0058C44.1701 9.71965 44.1642 9.42315 44.2179 9.13401C44.2717 8.84487 44.3841 8.56903 44.5484 8.323C44.7128 8.07698 44.9256 7.86583 45.1743 7.7022C45.4229 7.53857 45.7022 7.42582 45.9955 7.3707C46.2888 7.31558 46.59 7.31923 46.8811 7.38142C47.1722 7.44361 47.4472 7.56308 47.6896 7.73265C47.932 7.90223 48.1369 8.11844 48.292 8.36833C48.4471 8.61822 48.5491 8.89666 48.5921 9.18698L48.5939 9.19636Z" fill="#F99B1C"/>
</g>
</g>
<defs>
<clipPath id="clip0_5135_158">
<rect width="47" height="31" fill="white" transform="translate(0.774414 9.21484) rotate(-10.644)"/>
</clipPath>
</defs>
</svg>
