<svg width="81" height="80" viewBox="0 0 81 80" fill="none" xmlns="http://www.w3.org/2000/svg">
<rect x="1.125" y="0.625" width="78.75" height="78.75" rx="19.375" fill="#F37142"/>
<rect x="1.125" y="0.625" width="78.75" height="78.75" rx="19.375" stroke="#AD502F" stroke-width="1.25"/>
<path d="M27.167 37.3335V42.6668C27.167 45.3335 28.5003 46.6668 31.167 46.6668H33.0737C33.567 46.6668 34.0603 46.8135 34.487 47.0668L38.3803 49.5068C41.7403 51.6135 44.5003 50.0801 44.5003 46.1201V33.8801C44.5003 29.9068 41.7403 28.3868 38.3803 30.4935L34.487 32.9335C34.0603 33.1868 33.567 33.3335 33.0737 33.3335H31.167C28.5003 33.3335 27.167 34.6668 27.167 37.3335Z" stroke="white" stroke-width="2.66667"/>
<path d="M48.5 34.6667C50.8733 37.8267 50.8733 42.1734 48.5 45.3334" stroke="white" stroke-width="2.66667" stroke-linecap="round" stroke-linejoin="round"/>
<path d="M50.9404 31.3333C54.7938 36.4666 54.7938 43.5333 50.9404 48.6666" stroke="white" stroke-width="2.66667" stroke-linecap="round" stroke-linejoin="round"/>
</svg>
