<svg width="85" height="50" viewBox="0 0 85 50" fill="none" xmlns="http://www.w3.org/2000/svg">
<g filter="url(#filter0_d_614_25686)">
<g clip-path="url(#clip0_614_25686)">
<g filter="url(#filter1_d_614_25686)">
<rect width="85" height="48" rx="16" fill="white"/>
<rect x="0.5" y="0.5" width="84" height="47" rx="15.5" stroke="#B5B5B5"/>
<path d="M29.008 21.56C29.008 21.7733 28.9013 21.88 28.688 21.88H25.792V30.664C25.792 30.8027 25.7653 30.8933 25.712 30.936C25.6693 30.9787 25.568 31 25.408 31H23.696C23.568 31 23.472 30.9787 23.408 30.936C23.3547 30.8827 23.328 30.792 23.328 30.664V21.88H20.496C20.2933 21.88 20.192 21.7733 20.192 21.56V20.136C20.192 19.9973 20.2133 19.9067 20.256 19.864C20.2987 19.8213 20.3787 19.8 20.496 19.8H28.688C28.816 19.8 28.9013 19.8213 28.944 19.864C28.9867 19.9067 29.008 19.9973 29.008 20.136V21.56ZM37.9075 30.712C37.9075 30.84 37.8862 30.92 37.8435 30.952C37.8008 30.984 37.7048 31 37.5555 31H35.8915C35.7742 31 35.6888 30.984 35.6355 30.952C35.5822 30.9093 35.5555 30.8293 35.5555 30.712V26.232C35.5555 25.9547 35.5288 25.704 35.4755 25.48C35.4328 25.2453 35.3475 25.048 35.2195 24.888C35.1022 24.728 34.9422 24.6053 34.7395 24.52C34.5368 24.424 34.2808 24.376 33.9715 24.376C33.7582 24.376 33.5182 24.392 33.2515 24.424C32.9848 24.456 32.7502 24.5093 32.5475 24.584V30.712C32.5475 30.84 32.5262 30.92 32.4835 30.952C32.4515 30.984 32.3608 31 32.2115 31H30.5635C30.4462 31 30.3608 30.984 30.3075 30.952C30.2542 30.9093 30.2275 30.8293 30.2275 30.712V19.608C30.2275 19.4053 30.3342 19.304 30.5475 19.304H32.2115C32.3608 19.304 32.4515 19.3253 32.4835 19.368C32.5262 19.4107 32.5475 19.4907 32.5475 19.608V22.632C32.8248 22.5467 33.1395 22.4827 33.4915 22.44C33.8542 22.3973 34.1635 22.376 34.4195 22.376C35.5822 22.376 36.4515 22.6853 37.0275 23.304C37.6142 23.9227 37.9075 24.7973 37.9075 25.928V30.712ZM47.7375 26.76C47.7375 28.168 47.4015 29.256 46.7295 30.024C46.0575 30.792 45.0335 31.176 43.6575 31.176C42.2708 31.176 41.2575 30.792 40.6175 30.024C39.9775 29.256 39.6575 28.1787 39.6575 26.792C39.6575 26.1093 39.7482 25.496 39.9295 24.952C40.1215 24.3973 40.3882 23.9333 40.7295 23.56C41.0815 23.1867 41.5028 22.8987 41.9935 22.696C42.4948 22.4933 43.0602 22.392 43.6895 22.392C45.0335 22.392 46.0415 22.7813 46.7135 23.56C47.3962 24.328 47.7375 25.3947 47.7375 26.76ZM45.3215 26.808C45.3215 26.4453 45.2948 26.1147 45.2415 25.816C45.1882 25.5173 45.0975 25.2613 44.9695 25.048C44.8415 24.8347 44.6762 24.6693 44.4735 24.552C44.2708 24.424 44.0202 24.36 43.7215 24.36C43.1562 24.36 42.7348 24.5787 42.4575 25.016C42.1908 25.4427 42.0575 26.024 42.0575 26.76C42.0575 27.56 42.1802 28.168 42.4255 28.584C42.6815 29 43.0975 29.208 43.6735 29.208C43.9722 29.208 44.2228 29.1493 44.4255 29.032C44.6388 28.904 44.8095 28.7333 44.9375 28.52C45.0762 28.296 45.1722 28.04 45.2255 27.752C45.2895 27.464 45.3215 27.1493 45.3215 26.808ZM56.6291 29.96C56.6291 30.0987 56.6078 30.216 56.5651 30.312C56.5331 30.408 56.4425 30.4987 56.2931 30.584C56.0478 30.7013 55.7811 30.7973 55.4931 30.872C55.2158 30.9467 54.9278 31.0053 54.6291 31.048C54.3411 31.0907 54.0478 31.1227 53.7491 31.144C53.4505 31.1653 53.1678 31.176 52.9011 31.176C52.1758 31.176 51.5731 31.1067 51.0931 30.968C50.6238 30.8293 50.2451 30.6427 49.9571 30.408C49.6691 30.1627 49.4665 29.88 49.3491 29.56C49.2318 29.2293 49.1731 28.8773 49.1731 28.504C49.1731 28.088 49.2425 27.7093 49.3811 27.368C49.5198 27.016 49.7278 26.712 50.0051 26.456C50.2825 26.2 50.6291 26.0027 51.0451 25.864C51.4718 25.7147 51.9731 25.64 52.5491 25.64H54.3091V25.384C54.3091 25.2347 54.2931 25.0907 54.2611 24.952C54.2291 24.8133 54.1598 24.696 54.0531 24.6C53.9571 24.4933 53.8185 24.408 53.6371 24.344C53.4558 24.28 53.2158 24.248 52.9171 24.248C52.7571 24.248 52.5758 24.2587 52.3731 24.28C52.1705 24.2907 51.9678 24.312 51.7651 24.344C51.5625 24.3653 51.3651 24.3973 51.1731 24.44C50.9811 24.472 50.8105 24.5093 50.6611 24.552C50.5225 24.584 50.4265 24.584 50.3731 24.552C50.3198 24.52 50.2825 24.4507 50.2611 24.344L50.0051 23.224C49.9731 23.1067 49.9678 23.0267 49.9891 22.984C50.0211 22.9307 50.0798 22.888 50.1651 22.856C50.6451 22.6853 51.1465 22.5627 51.6691 22.488C52.2025 22.4133 52.7305 22.376 53.2531 22.376C54.4158 22.376 55.2691 22.6267 55.8131 23.128C56.3571 23.6187 56.6291 24.3493 56.6291 25.32V29.96ZM54.2931 27.192H53.0291C52.8798 27.192 52.7198 27.2027 52.5491 27.224C52.3785 27.2453 52.2185 27.2987 52.0691 27.384C51.9305 27.4587 51.8131 27.5707 51.7171 27.72C51.6211 27.8693 51.5731 28.072 51.5731 28.328C51.5731 28.7013 51.6958 28.9627 51.9411 29.112C52.1971 29.2613 52.5385 29.336 52.9651 29.336C53.0291 29.336 53.1145 29.336 53.2211 29.336C53.3278 29.3253 53.4398 29.3147 53.5571 29.304C53.6851 29.2827 53.8131 29.2613 53.9411 29.24C54.0691 29.208 54.1865 29.1707 54.2931 29.128V27.192ZM54.1171 18.728C54.1811 18.6747 54.2398 18.6373 54.2931 18.616C54.3465 18.5947 54.4158 18.6267 54.5011 18.712L55.6051 19.976C55.6691 20.04 55.6958 20.104 55.6851 20.168C55.6745 20.2213 55.6371 20.2587 55.5731 20.28L52.4851 21.864C52.3785 21.9173 52.2985 21.9387 52.2451 21.928C52.2025 21.9067 52.1545 21.8693 52.1011 21.816L51.4931 21.08C51.4398 21.016 51.4078 20.9627 51.3971 20.92C51.3971 20.8773 51.4398 20.8187 51.5251 20.744L54.1171 18.728ZM64.2159 30.584C64.2265 30.6587 64.2319 30.7227 64.2319 30.776C64.2319 30.8187 64.1732 30.8613 64.0559 30.904C63.6612 31.0213 63.2665 31.096 62.8719 31.128C62.4772 31.16 62.1412 31.176 61.8639 31.176C60.9465 31.176 60.2905 30.984 59.8959 30.6C59.5012 30.2053 59.3039 29.6293 59.3039 28.872V24.312H58.1839C58.0665 24.312 57.9919 24.2853 57.9599 24.232C57.9279 24.168 57.9119 24.0933 57.9119 24.008V23.144C57.9119 23.0373 57.9225 22.968 57.9439 22.936C57.9759 22.8933 58.0505 22.856 58.1679 22.824L59.3519 22.552L59.4639 21.048C59.4745 20.92 59.5065 20.8293 59.5599 20.776C59.6239 20.7227 59.7145 20.68 59.8319 20.648L61.3039 20.168C61.3999 20.1467 61.4745 20.1573 61.5279 20.2C61.5919 20.2427 61.6239 20.328 61.6239 20.456V22.6H63.3839C63.5012 22.6 63.5705 22.6267 63.5919 22.68C63.6239 22.7227 63.6399 22.7867 63.6399 22.872V24.008C63.6399 24.1147 63.6292 24.1947 63.6079 24.248C63.5865 24.2907 63.5119 24.312 63.3839 24.312H61.6239V28.376C61.6239 28.6853 61.6985 28.8987 61.8479 29.016C62.0079 29.1333 62.2425 29.192 62.5519 29.192C62.6265 29.192 62.7172 29.1867 62.8239 29.176C62.9305 29.1653 63.0372 29.1547 63.1439 29.144C63.2612 29.1333 63.3732 29.1227 63.4799 29.112C63.5865 29.1013 63.6772 29.0907 63.7519 29.08C63.9225 29.048 64.0132 29.1013 64.0239 29.24L64.2159 30.584Z" fill="#B5B5B5"/>
</g>
</g>
</g>
<defs>
<filter id="filter0_d_614_25686" x="0" y="0" width="85" height="50" filterUnits="userSpaceOnUse" color-interpolation-filters="sRGB">
<feFlood flood-opacity="0" result="BackgroundImageFix"/>
<feColorMatrix in="SourceAlpha" type="matrix" values="0 0 0 0 0 0 0 0 0 0 0 0 0 0 0 0 0 0 127 0" result="hardAlpha"/>
<feOffset dy="2"/>
<feComposite in2="hardAlpha" operator="out"/>
<feColorMatrix type="matrix" values="0 0 0 0 0.709804 0 0 0 0 0.709804 0 0 0 0 0.709804 0 0 0 1 0"/>
<feBlend mode="normal" in2="BackgroundImageFix" result="effect1_dropShadow_614_25686"/>
<feBlend mode="normal" in="SourceGraphic" in2="effect1_dropShadow_614_25686" result="shape"/>
</filter>
<filter id="filter1_d_614_25686" x="-2" y="-1" width="89" height="52" filterUnits="userSpaceOnUse" color-interpolation-filters="sRGB">
<feFlood flood-opacity="0" result="BackgroundImageFix"/>
<feColorMatrix in="SourceAlpha" type="matrix" values="0 0 0 0 0 0 0 0 0 0 0 0 0 0 0 0 0 0 127 0" result="hardAlpha"/>
<feOffset dy="1"/>
<feGaussianBlur stdDeviation="1"/>
<feColorMatrix type="matrix" values="0 0 0 0 0.0627451 0 0 0 0 0.0941176 0 0 0 0 0.156863 0 0 0 0.05 0"/>
<feBlend mode="normal" in2="BackgroundImageFix" result="effect1_dropShadow_614_25686"/>
<feBlend mode="normal" in="SourceGraphic" in2="effect1_dropShadow_614_25686" result="shape"/>
</filter>
<clipPath id="clip0_614_25686">
<rect width="85" height="48" rx="16" fill="white"/>
</clipPath>
</defs>
</svg>
