<svg width="16" height="16" viewBox="0 0 16 16" fill="none" xmlns="http://www.w3.org/2000/svg">
<path d="M7.99967 15.1668C4.04634 15.1668 0.833008 11.9535 0.833008 8.00016C0.833008 4.04683 4.04634 0.833496 7.99967 0.833496C11.953 0.833496 15.1663 4.04683 15.1663 8.00016C15.1663 11.9535 11.953 15.1668 7.99967 15.1668ZM7.99967 1.8335C4.59967 1.8335 1.83301 4.60016 1.83301 8.00016C1.83301 11.4002 4.59967 14.1668 7.99967 14.1668C11.3997 14.1668 14.1663 11.4002 14.1663 8.00016C14.1663 4.60016 11.3997 1.8335 7.99967 1.8335Z" fill="white"/>
<path d="M8.15983 11.1668C6.41316 11.1668 4.99316 9.74683 4.99316 8.00016C4.99316 6.2535 6.41316 4.8335 8.15983 4.8335C8.9265 4.8335 9.67317 5.1135 10.2465 5.62683C10.4532 5.80683 10.4732 6.12683 10.2932 6.3335C10.1132 6.54016 9.79317 6.56017 9.58651 6.38017C9.19317 6.0335 8.6865 5.84017 8.15983 5.84017C6.9665 5.84017 5.99316 6.8135 5.99316 8.00684C5.99316 9.20017 6.9665 10.1735 8.15983 10.1735C8.67983 10.1735 9.19317 9.98017 9.58651 9.6335C9.79317 9.4535 10.1132 9.47351 10.2932 9.68018C10.4732 9.88684 10.4532 10.2068 10.2465 10.3868C9.6665 10.8868 8.9265 11.1668 8.15983 11.1668Z" fill="white"/>
</svg>
