<svg width="16" height="16" viewBox="0 0 16 16" fill="none" xmlns="http://www.w3.org/2000/svg">
<path d="M7.36634 9.96683L6.13301 11.2002C5.87301 11.4602 5.45967 11.4602 5.19301 11.2068C5.11967 11.1335 5.04634 11.0668 4.97301 10.9935C4.28634 10.3002 3.66634 9.5735 3.11301 8.8135C2.56634 8.0535 2.12634 7.2935 1.80634 6.54016C1.49301 5.78016 1.33301 5.0535 1.33301 4.36016C1.33301 3.90683 1.41301 3.4735 1.57301 3.0735C1.73301 2.66683 1.98634 2.2935 2.33967 1.96016C2.76634 1.54016 3.23301 1.3335 3.72634 1.3335C3.91301 1.3335 4.09967 1.3735 4.26634 1.4535C4.43967 1.5335 4.59301 1.6535 4.71301 1.82683L6.25967 4.00683C6.37967 4.1735 6.46634 4.32683 6.52634 4.4735C6.58634 4.6135 6.61967 4.7535 6.61967 4.88016C6.61967 5.04016 6.57301 5.20016 6.47967 5.3535C6.39301 5.50683 6.26634 5.66683 6.10634 5.82683L5.59967 6.3535C5.52634 6.42683 5.49301 6.5135 5.49301 6.62016C5.49301 6.6735 5.49967 6.72016 5.51301 6.7735C5.53301 6.82683 5.55301 6.86683 5.56634 6.90683C5.68634 7.12683 5.89301 7.4135 6.18634 7.76016C6.48634 8.10683 6.80634 8.46016 7.15301 8.8135C7.21967 8.88016 7.29301 8.94683 7.35967 9.0135C7.62634 9.2735 7.63301 9.70016 7.36634 9.96683Z" fill="white"/>
<path d="M14.6471 12.2199C14.6471 12.4065 14.6137 12.5999 14.5471 12.7865C14.5271 12.8399 14.5071 12.8932 14.4804 12.9465C14.3671 13.1865 14.2204 13.4132 14.0271 13.6265C13.7004 13.9865 13.3404 14.2465 12.9337 14.4132C12.9271 14.4132 12.9204 14.4199 12.9137 14.4199C12.5204 14.5799 12.0937 14.6665 11.6337 14.6665C10.9537 14.6665 10.2271 14.5065 9.46039 14.1799C8.69372 13.8532 7.92706 13.4132 7.16706 12.8599C6.90706 12.6665 6.64706 12.4732 6.40039 12.2665L8.58039 10.0865C8.76706 10.2265 8.93372 10.3332 9.07372 10.4065C9.10706 10.4199 9.14706 10.4399 9.19372 10.4599C9.24706 10.4799 9.30039 10.4865 9.36039 10.4865C9.47372 10.4865 9.56039 10.4465 9.63372 10.3732L10.1404 9.8732C10.3071 9.70653 10.4671 9.57986 10.6204 9.49986C10.7737 9.40653 10.9271 9.35986 11.0937 9.35986C11.2204 9.35986 11.3537 9.38653 11.5004 9.44653C11.6471 9.50653 11.8004 9.5932 11.9671 9.70653L14.1737 11.2732C14.3471 11.3932 14.4671 11.5332 14.5404 11.6999C14.6071 11.8665 14.6471 12.0332 14.6471 12.2199Z" fill="white"/>
</svg>
