<svg width="17" height="16" viewBox="0 0 17 16" fill="none" xmlns="http://www.w3.org/2000/svg">
<path d="M8.66667 10.333C10.14 10.333 11.3333 9.13967 11.3333 7.66634V3.99967C11.3333 2.52634 10.14 1.33301 8.66667 1.33301C7.19333 1.33301 6 2.52634 6 3.99967V7.66634C6 9.13967 7.19333 10.333 8.66667 10.333Z" stroke="#F37142" stroke-width="1.2" stroke-linecap="round" stroke-linejoin="round"/>
<path d="M3.56665 6.43359V7.56693C3.56665 10.3803 5.85332 12.6669 8.66665 12.6669C11.48 12.6669 13.7667 10.3803 13.7667 7.56693V6.43359" stroke="#F37142" stroke-width="1.2" stroke-linecap="round" stroke-linejoin="round"/>
<path d="M7.73999 4.28707C8.33999 4.06707 8.99332 4.06707 9.59332 4.28707" stroke="#F37142" stroke-width="1.2" stroke-linecap="round" stroke-linejoin="round"/>
<path d="M8.1333 5.69988C8.48663 5.60655 8.8533 5.60655 9.20663 5.69988" stroke="#F37142" stroke-width="1.2" stroke-linecap="round" stroke-linejoin="round"/>
<path d="M8.66675 12.667V14.667" stroke="#F37142" stroke-width="1.2" stroke-linecap="round" stroke-linejoin="round"/>
</svg>
