<svg width="38" height="38" viewBox="0 0 38 38" fill="none" xmlns="http://www.w3.org/2000/svg">
<rect width="38" height="38" rx="19" fill="#FEF1EC"/>
<path d="M18.9999 21.333C20.4733 21.333 21.6666 20.1397 21.6666 18.6663V14.9997C21.6666 13.5263 20.4733 12.333 18.9999 12.333C17.5266 12.333 16.3333 13.5263 16.3333 14.9997V18.6663C16.3333 20.1397 17.5266 21.333 18.9999 21.333Z" stroke="#F37142" stroke-width="1.2" stroke-linecap="round" stroke-linejoin="round"/>
<path d="M13.8999 17.4336V18.5669C13.8999 21.3803 16.1866 23.6669 18.9999 23.6669C21.8132 23.6669 24.0999 21.3803 24.0999 18.5669V17.4336" stroke="#F37142" stroke-width="1.2" stroke-linecap="round" stroke-linejoin="round"/>
<path d="M18.0732 15.2871C18.6732 15.0671 19.3266 15.0671 19.9266 15.2871" stroke="#F37142" stroke-width="1.2" stroke-linecap="round" stroke-linejoin="round"/>
<path d="M18.4666 16.6999C18.8199 16.6065 19.1866 16.6065 19.5399 16.6999" stroke="#F37142" stroke-width="1.2" stroke-linecap="round" stroke-linejoin="round"/>
<path d="M19 23.667V25.667" stroke="#F37142" stroke-width="1.2" stroke-linecap="round" stroke-linejoin="round"/>
</svg>
