<svg width="112" height="50" viewBox="0 0 112 50" fill="none" xmlns="http://www.w3.org/2000/svg">
<g clip-path="url(#clip0_1148_64736)">
<g filter="url(#filter0_d_1148_64736)">
<g clip-path="url(#clip1_1148_64736)">
<g filter="url(#filter1_d_1148_64736)">
<rect width="112" height="48" rx="16" fill="#F37142"/>
<rect x="0.5" y="0.5" width="111" height="47" rx="15.5" stroke="#DD673C"/>
<path d="M29.008 21.56C29.008 21.7733 28.9013 21.88 28.688 21.88H25.792V30.664C25.792 30.8027 25.7653 30.8933 25.712 30.936C25.6693 30.9787 25.568 31 25.408 31H23.696C23.568 31 23.472 30.9787 23.408 30.936C23.3547 30.8827 23.328 30.792 23.328 30.664V21.88H20.496C20.2933 21.88 20.192 21.7733 20.192 21.56V20.136C20.192 19.9973 20.2133 19.9067 20.256 19.864C20.2987 19.8213 20.3787 19.8 20.496 19.8H28.688C28.816 19.8 28.9013 19.8213 28.944 19.864C28.9867 19.9067 29.008 19.9973 29.008 20.136V21.56ZM33.0238 30.712C33.0238 30.8293 33.0024 30.9093 32.9598 30.952C32.9278 30.984 32.8371 31 32.6878 31H31.0398C30.9224 31 30.8371 30.984 30.7838 30.952C30.7304 30.9093 30.7038 30.8293 30.7038 30.712V22.888C30.7038 22.7707 30.7304 22.696 30.7838 22.664C30.8371 22.6213 30.9224 22.6 31.0398 22.6H32.6878C32.8371 22.6 32.9278 22.6213 32.9598 22.664C33.0024 22.696 33.0238 22.7707 33.0238 22.888V30.712ZM33.4238 20.792C33.5091 20.8667 33.5464 20.9253 33.5358 20.968C33.5358 21.0107 33.5091 21.064 33.4557 21.128L32.8478 21.864C32.7944 21.9173 32.7411 21.9547 32.6878 21.976C32.6451 21.9867 32.5704 21.9653 32.4638 21.912L29.3758 20.328C29.3117 20.3067 29.2744 20.2693 29.2637 20.216C29.2531 20.152 29.2797 20.088 29.3438 20.024L30.4478 18.76C30.5331 18.6747 30.6024 18.6427 30.6558 18.664C30.7091 18.6853 30.7678 18.7227 30.8318 18.776L33.4238 20.792ZM37.735 30.712C37.735 30.8293 37.7137 30.9093 37.671 30.952C37.639 30.984 37.5483 31 37.399 31H35.751C35.6337 31 35.5483 30.984 35.495 30.952C35.4417 30.9093 35.415 30.8293 35.415 30.712V23.88C35.415 23.5173 35.4737 23.2293 35.591 23.016C35.7083 22.8027 35.9803 22.648 36.407 22.552C36.503 22.5307 36.6363 22.5147 36.807 22.504C36.9883 22.4827 37.1803 22.4667 37.383 22.456C37.5963 22.4347 37.8097 22.4187 38.023 22.408C38.2363 22.3973 38.4177 22.392 38.567 22.392C39.2283 22.392 39.799 22.4507 40.279 22.568C40.7697 22.6853 41.1963 22.8773 41.559 23.144C41.911 22.9093 42.3377 22.7227 42.839 22.584C43.351 22.4453 43.863 22.376 44.375 22.376C45.0683 22.376 45.6603 22.472 46.151 22.664C46.6417 22.856 47.0417 23.128 47.351 23.48C47.6603 23.832 47.8843 24.2533 48.023 24.744C48.1723 25.224 48.247 25.752 48.247 26.328V30.712C48.247 30.8293 48.2257 30.9093 48.183 30.952C48.1403 30.984 48.0443 31 47.895 31H46.263C46.1457 31 46.0603 30.984 46.007 30.952C45.9537 30.9093 45.927 30.8293 45.927 30.712V26.6C45.927 25.8747 45.799 25.32 45.543 24.936C45.287 24.552 44.8123 24.36 44.119 24.36C43.9163 24.36 43.6657 24.3867 43.367 24.44C43.079 24.4933 42.8497 24.5627 42.679 24.648C42.775 24.9147 42.839 25.2027 42.871 25.512C42.9137 25.8107 42.935 26.136 42.935 26.488V30.712C42.935 30.8293 42.9137 30.9093 42.871 30.952C42.8283 30.984 42.7323 31 42.583 31H40.935C40.8177 31 40.7323 30.984 40.679 30.952C40.6257 30.9093 40.599 30.8293 40.599 30.712V26.392C40.599 26.0613 40.5723 25.768 40.519 25.512C40.4657 25.256 40.3697 25.0427 40.231 24.872C40.103 24.6907 39.9163 24.552 39.671 24.456C39.4363 24.36 39.1323 24.312 38.759 24.312C38.6417 24.312 38.4763 24.3173 38.263 24.328C38.0603 24.3387 37.8843 24.36 37.735 24.392V30.712ZM60.067 25.432L62.547 30.68C62.6323 30.8933 62.5523 31 62.307 31H60.451C60.323 31 60.2217 30.984 60.147 30.952C60.083 30.9093 60.0243 30.824 59.971 30.696L58.451 27.272L57.235 28.648C57.235 28.744 57.235 28.8827 57.235 29.064C57.235 29.2347 57.235 29.4213 57.235 29.624C57.235 29.816 57.2297 30.008 57.219 30.2C57.219 30.392 57.219 30.5573 57.219 30.696C57.219 30.8133 57.1977 30.8933 57.155 30.936C57.123 30.9787 57.0323 31 56.883 31H55.235C55.011 31 54.899 30.8987 54.899 30.696V19.592C54.899 19.4747 54.9257 19.4 54.979 19.368C55.0323 19.3253 55.1177 19.304 55.235 19.304H56.899C57.0483 19.304 57.139 19.32 57.171 19.352C57.203 19.384 57.219 19.464 57.219 19.592V25.512L57.283 25.544L59.571 22.824C59.6563 22.7387 59.7257 22.68 59.779 22.648C59.843 22.616 59.9497 22.6 60.099 22.6H62.051C62.2003 22.6 62.2803 22.6373 62.291 22.712C62.3123 22.776 62.2857 22.8507 62.211 22.936L60.067 25.432ZM66.5751 20.408C66.5751 20.7813 66.4418 21.096 66.1751 21.352C65.9191 21.5973 65.6045 21.72 65.2311 21.72C64.8685 21.72 64.5538 21.5973 64.2871 21.352C64.0311 21.096 63.9031 20.7813 63.9031 20.408C63.9031 20.216 63.9351 20.04 63.9991 19.88C64.0738 19.72 64.1698 19.5813 64.2871 19.464C64.4151 19.3467 64.5591 19.256 64.7191 19.192C64.8791 19.1173 65.0498 19.08 65.2311 19.08C65.4125 19.08 65.5831 19.1173 65.7431 19.192C65.9138 19.256 66.0578 19.3467 66.1751 19.464C66.3031 19.5813 66.3991 19.72 66.4631 19.88C66.5378 20.04 66.5751 20.216 66.5751 20.408ZM66.3671 30.712C66.3671 30.8293 66.3458 30.9093 66.3031 30.952C66.2605 30.984 66.1645 31 66.0151 31H64.3831C64.2658 31 64.1805 30.984 64.1271 30.952C64.0738 30.9093 64.0471 30.8293 64.0471 30.712V22.888C64.0471 22.7707 64.0738 22.696 64.1271 22.664C64.1805 22.6213 64.2658 22.6 64.3831 22.6H66.0151C66.1645 22.6 66.2605 22.6213 66.3031 22.664C66.3458 22.696 66.3671 22.7707 66.3671 22.888V30.712ZM72.3755 22.392C73.6235 22.392 74.5568 22.7067 75.1755 23.336C75.8048 23.9547 76.1195 24.8453 76.1195 26.008C76.1195 26.5627 76.0128 26.9413 75.7995 27.144C75.5862 27.3467 75.2928 27.448 74.9195 27.448H70.8235C70.8342 27.7893 70.8875 28.072 70.9835 28.296C71.0902 28.52 71.2288 28.7013 71.3995 28.84C71.5702 28.9787 71.7675 29.0747 71.9915 29.128C72.2262 29.1813 72.4768 29.208 72.7435 29.208C73.0528 29.208 73.3675 29.1707 73.6875 29.096C74.0075 29.0213 74.3062 28.9253 74.5835 28.808C74.7115 28.7653 74.7968 28.7547 74.8395 28.776C74.8928 28.7867 74.9408 28.8347 74.9835 28.92L75.4955 30.072C75.5382 30.168 75.5435 30.2427 75.5115 30.296C75.4902 30.3493 75.4368 30.4027 75.3515 30.456C74.9568 30.712 74.4982 30.8933 73.9755 31C73.4528 31.1173 72.9675 31.176 72.5195 31.176C71.1222 31.176 70.0875 30.8293 69.4155 30.136C68.7435 29.4427 68.4075 28.344 68.4075 26.84C68.4075 26.136 68.4982 25.512 68.6795 24.968C68.8715 24.4133 69.1382 23.944 69.4795 23.56C69.8315 23.176 70.2475 22.888 70.7275 22.696C71.2182 22.4933 71.7675 22.392 72.3755 22.392ZM72.4235 24.312C71.9862 24.312 71.6288 24.4667 71.3515 24.776C71.0742 25.0853 70.9142 25.48 70.8715 25.96H73.8635C73.8635 25.7253 73.8368 25.5067 73.7835 25.304C73.7408 25.1013 73.6662 24.9307 73.5595 24.792C73.4528 24.6427 73.3088 24.5253 73.1275 24.44C72.9462 24.3547 72.7115 24.312 72.4235 24.312ZM75.5275 21.032C75.6235 21.1173 75.6715 21.192 75.6715 21.256C75.6715 21.3093 75.6342 21.3733 75.5595 21.448L75.1115 21.944C75.0475 22.0187 74.9782 22.0507 74.9035 22.04C74.8288 22.0187 74.7488 21.9813 74.6635 21.928L72.3915 20.696L70.1835 21.896C70.0982 21.9493 70.0235 21.9813 69.9595 21.992C69.8955 21.992 69.8262 21.9493 69.7515 21.864L69.3355 21.432C69.2715 21.3467 69.2342 21.2827 69.2235 21.24C69.2235 21.1867 69.2608 21.1227 69.3355 21.048L71.4635 19.208C71.6128 19.08 71.7675 18.9787 71.9275 18.904C72.0982 18.8293 72.2528 18.792 72.3915 18.792C72.7008 18.792 73.0262 18.9307 73.3675 19.208L75.5275 21.032ZM77.0795 16.648C77.1435 16.5947 77.2022 16.5573 77.2555 16.536C77.3088 16.5147 77.3782 16.5467 77.4635 16.632L78.5675 17.896C78.6315 17.96 78.6582 18.024 78.6475 18.088C78.6368 18.1413 78.5995 18.1787 78.5355 18.2L75.4475 19.784C75.3408 19.8373 75.2608 19.8587 75.2075 19.848C75.1648 19.8267 75.1168 19.7893 75.0635 19.736L74.4555 19C74.4022 18.936 74.3702 18.8827 74.3595 18.84C74.3595 18.7973 74.4022 18.7387 74.4875 18.664L77.0795 16.648ZM80.1413 30.712C80.1413 30.8293 80.1199 30.9093 80.0773 30.952C80.0453 30.984 79.9546 31 79.8053 31H78.1573C78.0399 31 77.9546 30.984 77.9013 30.952C77.8479 30.9093 77.8213 30.8293 77.8213 30.712V23.88C77.8213 23.5173 77.8799 23.2293 77.9973 23.016C78.1146 22.8027 78.3866 22.648 78.8133 22.552C78.9093 22.5307 79.0426 22.5147 79.2133 22.504C79.3946 22.4827 79.5866 22.4667 79.7893 22.456C80.0026 22.4347 80.2159 22.4187 80.4293 22.408C80.6426 22.3973 80.8239 22.392 80.9733 22.392C81.6346 22.392 82.2053 22.4507 82.6853 22.568C83.1759 22.6853 83.6026 22.8773 83.9653 23.144C84.3173 22.9093 84.7439 22.7227 85.2453 22.584C85.7573 22.4453 86.2693 22.376 86.7812 22.376C87.4746 22.376 88.0666 22.472 88.5573 22.664C89.0479 22.856 89.4479 23.128 89.7573 23.48C90.0666 23.832 90.2906 24.2533 90.4293 24.744C90.5786 25.224 90.6533 25.752 90.6533 26.328V30.712C90.6533 30.8293 90.6319 30.9093 90.5893 30.952C90.5466 30.984 90.4506 31 90.3013 31H88.6693C88.5519 31 88.4666 30.984 88.4133 30.952C88.3599 30.9093 88.3333 30.8293 88.3333 30.712V26.6C88.3333 25.8747 88.2053 25.32 87.9493 24.936C87.6933 24.552 87.2186 24.36 86.5253 24.36C86.3226 24.36 86.0719 24.3867 85.7733 24.44C85.4853 24.4933 85.2559 24.5627 85.0853 24.648C85.1813 24.9147 85.2453 25.2027 85.2773 25.512C85.3199 25.8107 85.3413 26.136 85.3413 26.488V30.712C85.3413 30.8293 85.3199 30.9093 85.2773 30.952C85.2346 30.984 85.1386 31 84.9893 31H83.3413C83.2239 31 83.1386 30.984 83.0853 30.952C83.0319 30.9093 83.0053 30.8293 83.0053 30.712V26.392C83.0053 26.0613 82.9786 25.768 82.9253 25.512C82.8719 25.256 82.7759 25.0427 82.6373 24.872C82.5093 24.6907 82.3226 24.552 82.0773 24.456C81.8426 24.36 81.5386 24.312 81.1653 24.312C81.0479 24.312 80.8826 24.3173 80.6693 24.328C80.4666 24.3387 80.2906 24.36 80.1413 24.392V30.712Z" fill="white"/>
</g>
<g opacity="0.5">
<g style="mix-blend-mode:soft-light">
<rect x="23.5952" y="-22.3418" width="10.8577" height="109.684" transform="rotate(-27.1119 23.5952 -22.3418)" fill="#FBD3C4"/>
</g>
<g style="mix-blend-mode:soft-light">
<rect x="38.3511" y="-22.3418" width="1.9657" height="109.684" transform="rotate(-27.1119 38.3511 -22.3418)" fill="#FBD3C4"/>
</g>
<g style="mix-blend-mode:soft-light">
<rect x="14.2319" y="-22.3418" width="5.16073" height="109.684" transform="rotate(-27.1119 14.2319 -22.3418)" fill="#FBD3C4"/>
</g>
</g>
</g>
<rect x="0.5" y="0.5" width="111" height="47" rx="15.5" stroke="#AD502F" shape-rendering="crispEdges"/>
</g>
</g>
<defs>
<filter id="filter0_d_1148_64736" x="0" y="0" width="112" height="50" filterUnits="userSpaceOnUse" color-interpolation-filters="sRGB">
<feFlood flood-opacity="0" result="BackgroundImageFix"/>
<feColorMatrix in="SourceAlpha" type="matrix" values="0 0 0 0 0 0 0 0 0 0 0 0 0 0 0 0 0 0 127 0" result="hardAlpha"/>
<feOffset dy="2"/>
<feComposite in2="hardAlpha" operator="out"/>
<feColorMatrix type="matrix" values="0 0 0 0 0.678431 0 0 0 0 0.313726 0 0 0 0 0.184314 0 0 0 1 0"/>
<feBlend mode="normal" in2="BackgroundImageFix" result="effect1_dropShadow_1148_64736"/>
<feBlend mode="normal" in="SourceGraphic" in2="effect1_dropShadow_1148_64736" result="shape"/>
</filter>
<filter id="filter1_d_1148_64736" x="-2" y="-1" width="116" height="52" filterUnits="userSpaceOnUse" color-interpolation-filters="sRGB">
<feFlood flood-opacity="0" result="BackgroundImageFix"/>
<feColorMatrix in="SourceAlpha" type="matrix" values="0 0 0 0 0 0 0 0 0 0 0 0 0 0 0 0 0 0 127 0" result="hardAlpha"/>
<feOffset dy="1"/>
<feGaussianBlur stdDeviation="1"/>
<feColorMatrix type="matrix" values="0 0 0 0 0.0627451 0 0 0 0 0.0941176 0 0 0 0 0.156863 0 0 0 0.05 0"/>
<feBlend mode="normal" in2="BackgroundImageFix" result="effect1_dropShadow_1148_64736"/>
<feBlend mode="normal" in="SourceGraphic" in2="effect1_dropShadow_1148_64736" result="shape"/>
</filter>
<clipPath id="clip0_1148_64736">
<rect width="112" height="50" fill="white"/>
</clipPath>
<clipPath id="clip1_1148_64736">
<rect width="112" height="48" rx="16" fill="white"/>
</clipPath>
</defs>
</svg>
